<svg width="70" height="70" viewBox="0 0 70 70" fill="none" xmlns="http://www.w3.org/2000/svg">
<circle cx="35" cy="35" r="35" fill="black"/>
<path d="M35.2755 43.427V46H35.7922L35.6487 44.4449V44.4731C36.4238 44.7559 37.9739 45.3214 38.7776 45.5759C39.7536 45.8586 40.7583 46 41.763 46C43.3419 46 44.7484 45.7738 45.8967 45.3497C47.0736 44.9255 48.0496 44.3318 48.8247 43.5966C49.5997 42.8615 50.1738 41.9849 50.547 40.967C50.7192 40.5712 51.0637 38.8747 51.035 38.8464C51.0637 38.4788 51.0924 38.1112 51.0924 37.7437C51.0924 36.5844 50.9489 35.5665 50.6618 34.6617C50.3748 33.7569 49.9442 32.9652 49.3701 32.2583C48.796 31.5514 48.0783 30.9011 47.2171 30.3356C46.356 29.7701 45.38 29.2328 44.2604 28.7239C43.1122 28.2149 42.1649 27.7625 41.3899 27.3384C41.1889 27.2253 40.7009 26.886 40.6435 26.8012C39.811 25.8681 39.1508 24.8219 38.835 23.5778C37.9165 19.8172 40.6435 16.7352 43.6863 16.3677C45.179 16.198 46.6717 16.2828 48.0783 16.8766C48.6811 17.1311 49.2265 17.4704 49.6858 17.9228C49.9442 18.149 50.2312 18.3752 50.5183 18.6579H50.7766V16.0849H50.2599L50.3748 17.3007C49.5997 17.018 48.0496 16.7635 47.2458 16.5373C46.2698 16.2546 45.2651 16.1132 44.2604 16.1132C42.6816 16.1132 41.275 16.3394 40.1268 16.7635C38.9499 17.1876 37.9739 17.7814 37.1988 18.5166C36.4238 19.2517 35.8496 20.1282 35.4765 21.1461C35.1033 22.1358 34.9023 23.2102 34.9023 24.3695C34.9023 25.5288 35.0459 26.5467 35.3329 27.4515C35.62 28.3563 36.0506 29.148 36.6247 29.8549C37.1988 30.5618 37.9165 31.2121 38.7776 31.7776C39.6388 32.3431 40.6148 32.8803 41.7343 33.3893C42.8251 33.87 46.643 36.5278 47.1597 38.5354C48.107 42.2959 45.3513 45.3779 42.3084 45.7455C40.8157 45.9152 39.323 45.8303 37.9165 45.2366C37.3136 44.9821 36.7682 44.6428 36.3089 44.1904C36.0506 43.9642 35.7635 43.738 35.4765 43.4835V43.4552" fill="white"/>
<path d="M9.04102 51.1133C9.02018 51.4323 8.93424 51.6667 8.7832 51.8164C8.63216 51.9648 8.42318 52.0391 8.15625 52.0391C7.88151 52.0391 7.66471 51.9355 7.50586 51.7285C7.34701 51.5202 7.26693 51.2376 7.26562 50.8809V50.2637C7.26562 49.9056 7.34635 49.625 7.50781 49.4219C7.67057 49.2188 7.89258 49.1172 8.17383 49.1172C8.43945 49.1172 8.64518 49.1934 8.79102 49.3457C8.93685 49.498 9.02018 49.7318 9.04102 50.0469H8.81445C8.79362 49.7891 8.73242 49.6048 8.63086 49.4941C8.5306 49.3835 8.37826 49.3281 8.17383 49.3281C7.95898 49.3281 7.79167 49.4082 7.67188 49.5684C7.55208 49.7285 7.49219 49.9609 7.49219 50.2656V50.875C7.49219 51.1771 7.55013 51.4121 7.66602 51.5801C7.7819 51.748 7.94531 51.832 8.15625 51.832C8.3776 51.832 8.53776 51.7767 8.63672 51.666C8.73568 51.5553 8.79492 51.3711 8.81445 51.1133H9.04102ZM11.6906 51.2051H10.6242L10.382 52H10.1496L11.0559 49.1562H11.2629L12.1691 52H11.9367L11.6906 51.2051ZM10.6887 50.9961H11.6262L11.1574 49.4707L10.6887 50.9961ZM13.6176 51.793H14.7895V52H13.393V49.1562H13.6176V51.793ZM16.1578 51.793H17.6207V52H15.898V51.8145L17.3043 49.3652H15.9371V49.1562H17.568V49.334L16.1578 51.793ZM20.2586 51.2051H19.1922L18.95 52H18.7176L19.6238 49.1562H19.8309L20.7371 52H20.5047L20.2586 51.2051ZM19.2566 50.9961H20.1941L19.7254 49.4707L19.2566 50.9961ZM21.9609 52V49.1562H22.6309C22.9395 49.1562 23.1836 49.2552 23.3633 49.4531C23.543 49.6497 23.6354 49.9212 23.6406 50.2676V50.8633C23.6406 51.2201 23.5495 51.4987 23.3672 51.6992C23.1862 51.8997 22.9316 52 22.6035 52H21.9609ZM22.1836 49.3672V51.793H22.6152C22.8691 51.793 23.0658 51.7148 23.2051 51.5586C23.3444 51.401 23.416 51.1764 23.4199 50.8848V50.2891C23.4199 49.9974 23.3516 49.7708 23.2148 49.6094C23.0794 49.4479 22.8828 49.3672 22.625 49.3672H22.1836ZM26.8059 50.8867C26.8059 51.2539 26.7251 51.5378 26.5637 51.7383C26.4035 51.9388 26.1783 52.0391 25.8879 52.0391C25.6001 52.0391 25.3742 51.9388 25.2102 51.7383C25.0474 51.5378 24.9654 51.2559 24.9641 50.8926V50.2734C24.9641 49.9076 25.0454 49.6237 25.2082 49.4219C25.371 49.2188 25.5962 49.1172 25.884 49.1172C26.1757 49.1172 26.4022 49.2188 26.5637 49.4219C26.7251 49.625 26.8059 49.9108 26.8059 50.2793V50.8867ZM26.5812 50.2695C26.5812 49.9583 26.5214 49.7246 26.4016 49.5684C26.2818 49.4121 26.1092 49.334 25.884 49.334C25.6665 49.334 25.4966 49.4108 25.3742 49.5645C25.2518 49.7168 25.1893 49.9453 25.1867 50.25V50.8867C25.1867 51.1992 25.2486 51.4342 25.3723 51.5918C25.496 51.748 25.6678 51.8262 25.8879 51.8262C26.1145 51.8262 26.2863 51.748 26.4035 51.5918C26.522 51.4355 26.5812 51.2005 26.5812 50.8867V50.2695ZM30.2652 50.4531C30.1611 50.3047 30.0888 50.1777 30.0484 50.0723C30.0081 49.9668 29.9879 49.8646 29.9879 49.7656C29.9879 49.5638 30.0387 49.4056 30.1402 49.291C30.2418 49.1751 30.3772 49.1172 30.5465 49.1172C30.6988 49.1172 30.8238 49.1699 30.9215 49.2754C31.0191 49.3796 31.068 49.513 31.068 49.6758C31.068 49.8646 30.982 50.0443 30.8102 50.2148L30.5348 50.4668L31.1754 51.3613C31.2678 51.1738 31.3141 50.9622 31.3141 50.7266H31.5133C31.5133 51.0508 31.4436 51.3216 31.3043 51.5391L31.6344 52H31.3727L31.1734 51.7227C31.0875 51.8216 30.9885 51.8991 30.8766 51.9551C30.7646 52.0111 30.6474 52.0391 30.525 52.0391C30.2984 52.0391 30.1174 51.9694 29.982 51.8301C29.8466 51.6908 29.7789 51.5052 29.7789 51.2734C29.7789 51.1367 29.8128 51.0072 29.8805 50.8848C29.9495 50.7611 30.0777 50.6172 30.2652 50.4531ZM30.525 51.8379C30.7229 51.8379 30.8987 51.7435 31.0523 51.5547L30.3941 50.6328L30.3746 50.6094L30.3043 50.6738C30.0973 50.877 29.9937 51.0768 29.9937 51.2734C29.9937 51.444 30.0419 51.5807 30.1383 51.6836C30.2346 51.7865 30.3635 51.8379 30.525 51.8379ZM30.2047 49.7578C30.2047 49.9115 30.2776 50.0957 30.4234 50.3105L30.6285 50.123C30.6975 50.0632 30.7535 49.998 30.7965 49.9277C30.8408 49.8561 30.8629 49.7721 30.8629 49.6758C30.8629 49.5742 30.8336 49.4896 30.775 49.4219C30.7177 49.3542 30.6409 49.3203 30.5445 49.3203C30.443 49.3203 30.3609 49.3607 30.2984 49.4414C30.2359 49.5208 30.2047 49.6263 30.2047 49.7578ZM35.8398 51.2051H34.7734L34.5312 52H34.2988L35.2051 49.1562H35.4121L36.3184 52H36.0859L35.8398 51.2051ZM34.8379 50.9961H35.7754L35.3066 49.4707L34.8379 50.9961ZM39.2238 51.1133C39.203 51.4323 39.1171 51.6667 38.966 51.8164C38.815 51.9648 38.606 52.0391 38.3391 52.0391C38.0643 52.0391 37.8475 51.9355 37.6887 51.7285C37.5298 51.5202 37.4497 51.2376 37.4484 50.8809V50.2637C37.4484 49.9056 37.5292 49.625 37.6906 49.4219C37.8534 49.2188 38.0754 49.1172 38.3566 49.1172C38.6223 49.1172 38.828 49.1934 38.9738 49.3457C39.1197 49.498 39.203 49.7318 39.2238 50.0469H38.9973C38.9764 49.7891 38.9152 49.6048 38.8137 49.4941C38.7134 49.3835 38.5611 49.3281 38.3566 49.3281C38.1418 49.3281 37.9745 49.4082 37.8547 49.5684C37.7349 49.7285 37.675 49.9609 37.675 50.2656V50.875C37.675 51.1771 37.7329 51.4121 37.8488 51.5801C37.9647 51.748 38.1281 51.832 38.3391 51.832C38.5604 51.832 38.7206 51.7767 38.8195 51.666C38.9185 51.5553 38.9777 51.3711 38.9973 51.1133H39.2238ZM42.2855 51.1133C42.2647 51.4323 42.1788 51.6667 42.0277 51.8164C41.8767 51.9648 41.6677 52.0391 41.4008 52.0391C41.126 52.0391 40.9092 51.9355 40.7504 51.7285C40.5915 51.5202 40.5115 51.2376 40.5102 50.8809V50.2637C40.5102 49.9056 40.5909 49.625 40.7523 49.4219C40.9151 49.2188 41.1371 49.1172 41.4184 49.1172C41.684 49.1172 41.8897 49.1934 42.0355 49.3457C42.1814 49.498 42.2647 49.7318 42.2855 50.0469H42.059C42.0381 49.7891 41.977 49.6048 41.8754 49.4941C41.7751 49.3835 41.6228 49.3281 41.4184 49.3281C41.2035 49.3281 41.0362 49.4082 40.9164 49.5684C40.7966 49.7285 40.7367 49.9609 40.7367 50.2656V50.875C40.7367 51.1771 40.7947 51.4121 40.9105 51.5801C41.0264 51.748 41.1898 51.832 41.4008 51.832C41.6221 51.832 41.7823 51.7767 41.8812 51.666C41.9802 51.5553 42.0395 51.3711 42.059 51.1133H42.2855ZM44.9684 50.6387H43.8648V51.793H45.1344V52H43.6422V49.1562H45.1246V49.3672H43.8648V50.4316H44.9684V50.6387ZM47.7664 51.3008C47.7664 51.1419 47.7208 51.0169 47.6297 50.9258C47.5398 50.8346 47.3712 50.7474 47.1238 50.6641C46.8764 50.5807 46.6948 50.4876 46.5789 50.3848C46.4266 50.2507 46.3504 50.0736 46.3504 49.8535C46.3504 49.6361 46.4253 49.459 46.575 49.3223C46.7247 49.1855 46.9181 49.1172 47.1551 49.1172C47.3973 49.1172 47.5952 49.1966 47.7488 49.3555C47.9025 49.5143 47.9793 49.7188 47.9793 49.9688H47.7547C47.7547 49.7773 47.7007 49.623 47.5926 49.5059C47.4858 49.3874 47.34 49.3281 47.1551 49.3281C46.9754 49.3281 46.8335 49.377 46.7293 49.4746C46.6264 49.571 46.575 49.696 46.575 49.8496C46.575 49.9928 46.6238 50.11 46.7215 50.2012C46.8191 50.2923 46.9747 50.3737 47.1883 50.4453C47.4018 50.5156 47.5633 50.5892 47.6727 50.666C47.782 50.7415 47.8628 50.8307 47.9148 50.9336C47.9669 51.0365 47.993 51.1576 47.993 51.2969C47.993 51.5195 47.9174 51.6992 47.7664 51.8359C47.6167 51.9714 47.4181 52.0391 47.1707 52.0391C47.004 52.0391 46.8517 52.0052 46.7137 51.9375C46.577 51.8685 46.4695 51.7702 46.3914 51.6426C46.3146 51.5137 46.2762 51.362 46.2762 51.1875H46.4988C46.4988 51.388 46.5594 51.5456 46.6805 51.6602C46.8016 51.7747 46.965 51.832 47.1707 51.832C47.3504 51.832 47.4943 51.7839 47.6023 51.6875C47.7117 51.5911 47.7664 51.4622 47.7664 51.3008ZM51.0645 50.8867C51.0645 51.2539 50.9837 51.5378 50.8223 51.7383C50.6621 51.9388 50.4368 52.0391 50.1465 52.0391C49.8587 52.0391 49.6328 51.9388 49.4688 51.7383C49.306 51.5378 49.224 51.2559 49.2227 50.8926V50.2734C49.2227 49.9076 49.304 49.6237 49.4668 49.4219C49.6296 49.2188 49.8548 49.1172 50.1426 49.1172C50.4342 49.1172 50.6608 49.2188 50.8223 49.4219C50.9837 49.625 51.0645 49.9108 51.0645 50.2793V50.8867ZM50.8398 50.2695C50.8398 49.9583 50.7799 49.7246 50.6602 49.5684C50.5404 49.4121 50.3678 49.334 50.1426 49.334C49.9251 49.334 49.7552 49.4108 49.6328 49.5645C49.5104 49.7168 49.4479 49.9453 49.4453 50.25V50.8867C49.4453 51.1992 49.5072 51.4342 49.6309 51.5918C49.7546 51.748 49.9264 51.8262 50.1465 51.8262C50.373 51.8262 50.5449 51.748 50.6621 51.5918C50.7806 51.4355 50.8398 51.2005 50.8398 50.8867V50.2695ZM53.3449 50.8164H52.6809V52H52.4562V49.1562H53.2355C53.4947 49.1562 53.6952 49.2305 53.8371 49.3789C53.9803 49.526 54.052 49.7311 54.052 49.9941C54.052 50.1777 54.0077 50.3392 53.9191 50.4785C53.8306 50.6165 53.7115 50.7122 53.5617 50.7656L54.1535 51.9746V52H53.9152L53.3449 50.8164ZM52.6809 50.6094H53.2746C53.4426 50.6094 53.5767 50.5521 53.677 50.4375C53.7772 50.3216 53.8273 50.1738 53.8273 49.9941C53.8273 49.7949 53.7753 49.6406 53.6711 49.5312C53.5669 49.4219 53.4211 49.3672 53.2336 49.3672H52.6809V50.6094ZM55.723 52H55.5004V49.1562H55.723V52ZM58.9996 50.8867C58.9996 51.2539 58.9189 51.5378 58.7574 51.7383C58.5973 51.9388 58.372 52.0391 58.0816 52.0391C57.7939 52.0391 57.568 51.9388 57.4039 51.7383C57.2411 51.5378 57.1591 51.2559 57.1578 50.8926V50.2734C57.1578 49.9076 57.2392 49.6237 57.402 49.4219C57.5647 49.2188 57.79 49.1172 58.0777 49.1172C58.3694 49.1172 58.596 49.2188 58.7574 49.4219C58.9189 49.625 58.9996 49.9108 58.9996 50.2793V50.8867ZM58.775 50.2695C58.775 49.9583 58.7151 49.7246 58.5953 49.5684C58.4755 49.4121 58.303 49.334 58.0777 49.334C57.8603 49.334 57.6904 49.4108 57.568 49.5645C57.4456 49.7168 57.3831 49.9453 57.3805 50.25V50.8867C57.3805 51.1992 57.4423 51.4342 57.566 51.5918C57.6897 51.748 57.8616 51.8262 58.0816 51.8262C58.3082 51.8262 58.4801 51.748 58.5973 51.5918C58.7158 51.4355 58.775 51.2005 58.775 50.8867V50.2695ZM61.7313 51.3008C61.7313 51.1419 61.6857 51.0169 61.5945 50.9258C61.5047 50.8346 61.3361 50.7474 61.0887 50.6641C60.8413 50.5807 60.6596 50.4876 60.5438 50.3848C60.3914 50.2507 60.3152 50.0736 60.3152 49.8535C60.3152 49.6361 60.3901 49.459 60.5398 49.3223C60.6896 49.1855 60.8829 49.1172 61.1199 49.1172C61.3621 49.1172 61.56 49.1966 61.7137 49.3555C61.8673 49.5143 61.9441 49.7188 61.9441 49.9688H61.7195C61.7195 49.7773 61.6655 49.623 61.5574 49.5059C61.4507 49.3874 61.3048 49.3281 61.1199 49.3281C60.9402 49.3281 60.7983 49.377 60.6941 49.4746C60.5913 49.571 60.5398 49.696 60.5398 49.8496C60.5398 49.9928 60.5887 50.11 60.6863 50.2012C60.784 50.2923 60.9396 50.3737 61.1531 50.4453C61.3667 50.5156 61.5281 50.5892 61.6375 50.666C61.7469 50.7415 61.8276 50.8307 61.8797 50.9336C61.9318 51.0365 61.9578 51.1576 61.9578 51.2969C61.9578 51.5195 61.8823 51.6992 61.7313 51.8359C61.5815 51.9714 61.3829 52.0391 61.1355 52.0391C60.9689 52.0391 60.8165 52.0052 60.6785 51.9375C60.5418 51.8685 60.4344 51.7702 60.3563 51.6426C60.2794 51.5137 60.241 51.362 60.241 51.1875H60.4637C60.4637 51.388 60.5242 51.5456 60.6453 51.6602C60.7664 51.7747 60.9298 51.832 61.1355 51.832C61.3152 51.832 61.4591 51.7839 61.5672 51.6875C61.6766 51.5911 61.7313 51.4622 61.7313 51.3008Z" fill="white"/>
<path d="M34.616 43.4269C34.3289 43.6814 34.0419 43.9076 33.7835 44.1338C33.2955 44.5579 32.7501 44.9255 32.176 45.1799C30.7694 45.802 29.2767 45.8868 27.784 45.6889C24.7412 45.3213 21.9854 42.2393 22.9327 38.4787C23.4494 36.4712 27.2673 33.8133 28.3581 33.3327C29.4776 32.8237 30.4536 32.3148 31.3148 31.721C32.176 31.1555 32.8936 30.5051 33.4677 29.7983C34.0418 29.0914 34.4724 28.2997 34.7595 27.3949C35.0465 26.4901 35.1901 25.4722 35.1901 24.3129C35.1901 23.1536 34.9891 22.1074 34.616 21.0895C34.2428 20.0999 33.6687 19.2234 32.8936 18.4599C32.1186 17.6965 31.1426 17.131 29.9656 16.6786C28.7887 16.2545 27.4108 16.0283 25.832 16.0283C24.8273 16.0283 23.8226 16.1697 22.8466 16.4524C22.0428 16.6786 20.4927 16.9614 19.7176 17.2158L19.8325 16H19.3158V18.573H19.5741C19.8899 18.3186 20.1482 18.0924 20.4066 17.8379C20.8946 17.4138 21.44 17.0462 22.0141 16.7917C23.4207 16.1697 24.9134 16.0848 26.4061 16.2828C29.4489 16.6503 32.1473 19.7323 31.2574 23.4929C30.9703 24.737 30.3101 25.7832 29.4489 26.7163C29.3915 26.8011 28.8748 27.1404 28.7026 27.2535C27.9562 27.6494 26.9802 28.13 25.832 28.639C24.7125 29.1197 23.7365 29.6569 22.8753 30.2507C22.0141 30.8162 21.2965 31.4665 20.7223 32.1734C20.1482 32.8803 19.7176 33.7002 19.4306 34.5768C19.1435 35.4816 19 36.4995 19 37.6588C19 38.0263 19.0287 38.3939 19.0574 38.7615C19.0574 38.7615 19.3732 40.4863 19.5454 40.8821C19.9186 41.8717 20.4927 42.7483 21.2678 43.5117C22.0428 44.2469 23.0188 44.8406 24.1957 45.2648C25.3727 45.6889 26.7506 45.9151 28.3294 45.9151C29.3341 45.9151 30.3388 45.7737 31.3148 45.491C32.1186 45.2648 33.6974 44.671 34.4437 44.3882V44.36L34.3002 45.9151H34.8169V43.4269" fill="white"/>
</svg>
