<svg width="192" height="46" viewBox="0 0 192 46" fill="none" xmlns="http://www.w3.org/2000/svg">
<path d="M2.23486 17.2143C2.23486 9.83674 6.27145 3.6499 13.6833 3.6499C17.0813 3.6499 19.2934 4.76302 21.574 6.98925V12.6842H21.1179C20.6162 8.54242 17.6286 4.11587 13.6833 4.11587C8.55201 4.11587 5.90656 10.5098 5.90656 17.1885C5.90656 23.9448 8.55201 30.1057 14.071 30.1057C18.6777 30.1057 20.753 26.3781 21.1407 23.3494H21.574V27.2065C19.5671 29.6139 16.8076 30.5717 13.7973 30.5717C5.70131 30.6235 2.23486 24.359 2.23486 17.2143Z" fill="white"/>
<path d="M34.7557 30.1057L43.2621 3.6499L52.3615 30.1057H54.1175V30.5975H48.9178V30.1057H51.6089L48.667 21.5374H40.6851L37.9256 30.1057H40.5482V30.5975H33.1592V30.1057H34.7557ZM48.5074 21.0455L44.5621 9.5261L40.8675 21.0455H48.5074Z" fill="white"/>
<path d="M70.9936 17.6027H69.4429V17.1109H70.8568C74.0953 17.1109 76.2617 15.1694 76.2617 10.7169C76.2617 7.42937 74.3005 3.93471 71.2673 3.93471H68.5762V29.821H70.7884V30.3129H63.3994V29.821H65.6115V3.93471H63.3994V3.44287H72.4304C77.06 3.44287 79.4317 6.601 79.4317 10.4581C79.4317 13.4868 77.995 16.7743 74.3233 17.1886C79.865 18.2758 77.8353 29.588 83.1034 29.588C83.5823 29.588 84.0841 29.4587 84.4262 29.2774L84.563 29.7175C84.0385 30.2869 82.7841 30.8305 81.7806 30.8305C73.9811 30.8305 76.1477 17.6027 70.9936 17.6027Z" fill="white"/>
<path d="M95.4869 20.0101V3.93471H93.2748V3.44287H100.664V3.93471H98.4516V20.8126C98.5428 25.9899 100.367 29.4845 104.951 29.4845C107.87 29.4845 111.154 26.8959 111.154 20.3726V3.93471H108.942V3.44287H114.119V3.93471H111.907V20.8902C111.907 27.4395 108.349 30.8305 104.085 30.8305C99.9339 30.8305 95.4869 27.8795 95.4869 20.0101Z" fill="white"/>
<path d="M175.238 3.41694C178.43 3.44282 181.099 4.81479 183.242 7.55875C185.296 10.1991 186.299 13.3573 186.299 17.0332C186.276 20.8385 185.227 24.0742 183.128 26.7405C180.94 29.5104 178.202 30.8823 174.896 30.8564C171.521 30.8306 168.784 29.4586 166.686 26.7405C164.678 24.126 163.675 20.8901 163.675 17.0072C163.698 12.8395 164.953 9.44844 167.461 6.83392C169.604 4.53004 172.205 3.39104 175.238 3.41694ZM174.896 4.81479C172.82 4.81479 171.156 5.66904 169.902 7.40343C168.328 9.552 167.552 12.736 167.53 16.9037C167.507 21.2008 168.305 24.4884 169.925 26.7924C171.156 28.5525 172.775 29.4327 174.828 29.4327C177.518 29.4327 179.502 28.1384 180.803 25.5497C181.829 23.5047 182.353 20.8125 182.353 17.4991C182.353 13.9785 181.897 11.1569 180.94 9.00838C179.708 6.23855 177.678 4.84068 174.896 4.81479Z" fill="white"/>
<path d="M137.996 28.4749V30.8305H138.407L138.293 29.4068V29.4327C138.908 29.6916 140.14 30.2093 140.779 30.4422C141.554 30.7012 142.352 30.8305 143.15 30.8305C144.404 30.8305 145.523 30.6235 146.435 30.2352C147.37 29.847 148.145 29.3033 148.76 28.6303C149.376 27.9572 149.832 27.1547 150.13 26.2228C150.266 25.8604 150.54 24.3072 150.517 24.2814C150.54 23.9449 150.563 23.6083 150.563 23.2718C150.563 22.2104 150.449 21.2785 150.221 20.4502C149.992 19.6218 149.65 18.8971 149.194 18.2498C148.738 17.6027 148.168 17.0073 147.484 16.4896C146.8 15.9719 146.024 15.4801 145.134 15.0141C144.222 14.5482 143.47 14.1339 142.854 13.7456C142.694 13.6421 142.307 13.3315 142.261 13.2538C141.6 12.3995 141.076 11.4417 140.825 10.3027C140.094 6.85986 142.261 4.03826 144.678 3.70173C145.865 3.54641 147.05 3.62407 148.168 4.16768C148.646 4.40066 149.08 4.71129 149.444 5.12548C149.65 5.33256 149.878 5.53966 150.107 5.79853H150.312V3.44287H149.9L149.992 4.55598C149.376 4.29712 148.145 4.06414 147.506 3.85705C146.731 3.59819 145.933 3.46875 145.134 3.46875C143.88 3.46875 142.763 3.67585 141.851 4.06414C140.916 4.45244 140.14 4.99605 139.524 5.6691C138.908 6.34214 138.452 7.14461 138.156 8.07652C137.86 8.98254 137.7 9.96623 137.7 11.0276C137.7 12.0889 137.814 13.0208 138.042 13.8492C138.27 14.6775 138.612 15.4024 139.068 16.0495C139.524 16.6966 140.094 17.2921 140.779 17.8098C141.463 18.3275 142.238 18.8194 143.128 19.2854C143.994 19.7253 147.028 22.1587 147.438 23.9966C148.19 27.4395 146.002 30.2611 143.584 30.5976C142.398 30.7529 141.212 30.6752 140.094 30.1316C139.615 29.8986 139.182 29.588 138.817 29.1739C138.612 28.9667 138.384 28.7597 138.156 28.5268V28.5008" fill="white"/>
<path d="M137.472 28.475C137.244 28.7079 137.016 28.9151 136.811 29.1221C136.423 29.5104 135.99 29.847 135.534 30.08C134.416 30.6494 133.23 30.7271 132.044 30.5459C129.626 30.2093 127.438 27.3877 128.19 23.9449C128.6 22.1069 131.634 19.6737 132.5 19.2336C133.39 18.7676 134.165 18.3017 134.849 17.758C135.534 17.2403 136.104 16.645 136.56 15.9977C137.016 15.3506 137.358 14.6258 137.586 13.7974C137.814 12.9691 137.928 12.0371 137.928 10.9758C137.928 9.91447 137.768 8.95667 137.472 8.02476C137.176 7.11874 136.72 6.31627 136.104 5.61734C135.488 4.91841 134.712 4.40068 133.777 3.98651C132.842 3.59821 131.748 3.39112 130.494 3.39112C129.695 3.39112 128.897 3.52055 128.122 3.77941C127.483 3.9865 126.252 4.24536 125.636 4.47834L125.728 3.36523H125.316V5.72088H125.522C125.773 5.4879 125.978 5.28081 126.184 5.04783C126.571 4.65954 127.004 4.32302 127.46 4.09005C128.578 3.52055 129.763 3.44289 130.95 3.62409C133.367 3.96061 135.511 6.78222 134.803 10.2251C134.575 11.3641 134.051 12.3219 133.367 13.1761C133.321 13.2538 132.911 13.5645 132.774 13.668C132.181 14.0304 131.406 14.4705 130.494 14.9365C129.604 15.3765 128.828 15.8684 128.144 16.412C127.46 16.9296 126.89 17.5251 126.434 18.1722C125.978 18.8194 125.636 19.57 125.407 20.3726C125.179 21.2009 125.065 22.1328 125.065 23.1942C125.065 23.5306 125.088 23.8672 125.111 24.2037C125.111 24.2037 125.362 25.7827 125.5 26.1452C125.796 27.0513 126.252 27.8537 126.868 28.5526C127.483 29.2257 128.258 29.7693 129.193 30.1576C130.128 30.5459 131.224 30.7529 132.478 30.7529C133.276 30.7529 134.074 30.6236 134.849 30.3646C135.488 30.1576 136.742 29.614 137.335 29.355V29.3292L137.221 30.7529H137.632V28.475" fill="white"/>
<path d="M188.488 5.17715C188.488 4.99595 188.442 4.84064 188.351 4.7112C188.26 4.58176 188.123 4.53 187.963 4.53C188.009 4.53 187.918 4.53 187.69 4.55588V5.82431C187.758 5.8502 187.872 5.8502 188.009 5.8502C188.328 5.87608 188.488 5.64311 188.488 5.17715ZM189.149 7.06686C188.966 7.06686 188.807 7.01508 188.67 6.88565C188.556 6.78211 188.465 6.65267 188.351 6.44558C188.26 6.29026 188.191 6.13494 188.1 5.95374C188.054 5.95374 187.986 5.97962 187.94 5.97962C187.872 5.97962 187.758 5.95374 187.644 5.92786V6.67855C187.644 6.78211 187.69 6.88565 187.758 6.93742C187.826 6.9892 187.918 7.01508 188.009 7.01508L188.032 7.06686V7.09274H187.051V7.01508H187.074C187.188 7.01508 187.256 6.9892 187.302 6.93742C187.348 6.88565 187.37 6.80799 187.37 6.67855V4.78886C187.37 4.63354 187.256 4.55588 187.051 4.55588V4.47822C187.211 4.45234 187.416 4.45234 187.712 4.45234C188.032 4.45234 188.282 4.47822 188.419 4.55588C188.67 4.65942 188.784 4.86652 188.784 5.17715C188.784 5.48779 188.647 5.72076 188.351 5.87608L188.852 6.73033C188.944 6.88565 189.035 6.96331 189.126 6.96331L189.149 7.06686ZM189.674 5.79842C189.674 5.28069 189.515 4.86652 189.194 4.50411C188.875 4.14171 188.488 3.96049 188.032 3.96049C187.576 3.96049 187.211 4.14171 186.892 4.50411C186.572 4.86652 186.413 5.30659 186.413 5.79842C186.413 6.31615 186.572 6.73033 186.892 7.09274C187.211 7.45515 187.598 7.63635 188.032 7.63635C188.488 7.63635 188.875 7.45515 189.194 7.09274C189.515 6.75622 189.674 6.31615 189.674 5.79842ZM189.788 5.79842C189.788 6.34204 189.606 6.80799 189.263 7.19628C188.921 7.58458 188.51 7.79167 188.009 7.79167C187.53 7.79167 187.12 7.58458 186.778 7.19628C186.436 6.80799 186.253 6.34204 186.253 5.79842C186.253 5.25481 186.436 4.78886 186.778 4.40056C187.12 4.01227 187.53 3.80518 188.009 3.80518C188.488 3.80518 188.898 4.01227 189.263 4.40056C189.629 4.78886 189.788 5.25481 189.788 5.79842Z" fill="white"/>
<path d="M59.9331 42.7641C59.7735 42.8676 59.5454 42.9194 59.2262 42.9194C58.2454 42.9194 57.5613 42.0393 57.5613 40.1237C57.5613 37.8974 58.5419 37.1985 59.3174 37.1985C59.6138 37.1985 59.8419 37.2761 59.9331 37.328L59.7963 37.8716C59.6822 37.8198 59.5454 37.7421 59.2946 37.7421C58.77 37.7421 58.1542 38.3375 58.1542 40.046C58.1542 41.7804 58.7243 42.3499 59.3174 42.3499C59.5226 42.3499 59.7279 42.2981 59.8419 42.2205L59.9331 42.7641Z" fill="white"/>
<path d="M70.0131 41.1852L69.6711 42.8679H69.1238L70.264 37.2246H70.8797L71.9744 42.8679H71.4043L71.0621 41.1852H70.0131ZM71.0393 40.6674L70.7885 39.2437C70.7201 38.8296 70.6517 38.3636 70.5832 37.9494H70.5604C70.492 38.3636 70.4236 38.8554 70.3552 39.2437L70.1043 40.6674H71.0393Z" fill="white"/>
<path d="M81.4614 37.2246H82.0317V42.3242H83.4227V42.8679H81.4614V37.2246Z" fill="white"/>
<path d="M92.5449 42.4796L94.2553 37.7941V37.7682H92.6817V37.2246H94.8711V37.6647L93.2062 42.2983V42.3242H94.8711V42.8679H92.5449V42.4796Z" fill="white"/>
<path d="M104.997 41.1852L104.655 42.8679H104.107L105.248 37.2246H105.863L106.958 42.8679H106.388L106.046 41.1852H104.997ZM106.023 40.6674L105.772 39.2437C105.704 38.8296 105.635 38.3636 105.567 37.9494H105.544C105.476 38.3636 105.407 38.8554 105.339 39.2437L105.088 40.6674H106.023Z" fill="white"/>
<path d="M116.445 37.3021C116.673 37.2245 116.924 37.1985 117.221 37.1985C117.745 37.1985 118.11 37.3538 118.384 37.6128C118.771 38.0011 119.045 38.7258 119.045 39.8907C119.045 41.1851 118.771 41.884 118.452 42.2723C118.133 42.6864 117.654 42.8936 117.084 42.8936C116.856 42.8936 116.628 42.8676 116.445 42.8417V37.3021ZM117.015 42.3499C117.107 42.3758 117.175 42.3758 117.221 42.3758C117.836 42.3758 118.452 41.858 118.452 39.9425C118.452 38.5187 118.064 37.7421 117.266 37.7421C117.175 37.7421 117.084 37.7421 116.993 37.7681V42.3499H117.015Z" fill="white"/>
<path d="M131.178 39.9945C131.178 42.1171 130.54 42.9196 129.74 42.9196C128.92 42.9196 128.372 41.936 128.372 40.0204C128.372 38.1565 128.965 37.147 129.832 37.147C130.676 37.147 131.178 38.2084 131.178 39.9945ZM128.942 40.0462C128.942 41.2111 129.148 42.376 129.763 42.376C130.402 42.376 130.585 41.1334 130.585 40.0462C130.585 38.9849 130.424 37.7424 129.763 37.7424C129.148 37.7164 128.942 38.9073 128.942 40.0462Z" fill="white"/>
</svg>
