<svg width="160" height="34" viewBox="0 0 160 34" fill="none" xmlns="http://www.w3.org/2000/svg">
<path d="M1.86246 12.7237C1.86246 7.27069 5.22628 2.69781 11.4028 2.69781C14.2345 2.69781 16.0779 3.52055 17.9784 5.16602V9.37536H17.5983C17.1802 6.31402 14.6906 3.04222 11.4028 3.04222C7.12675 3.04222 4.92221 7.76816 4.92221 12.7046C4.92221 17.6984 7.12675 22.2521 11.7259 22.2521C15.5648 22.2521 17.2942 19.4969 17.6173 17.2583H17.9784V20.1092C16.306 21.8886 14.0064 22.5965 11.4978 22.5965C4.75117 22.6348 1.86246 18.0045 1.86246 12.7237Z" fill="#010001"/>
<path d="M28.9631 22.2521L36.0518 2.69781L43.6346 22.2521H45.098V22.6156H40.7649V22.2521H43.0075L40.5559 15.919H33.9043L31.6047 22.2521H33.7902V22.6156H27.6327V22.2521H28.9631ZM40.4229 15.5554L37.1351 7.04109L34.0563 15.5554H40.4229Z" fill="#010001"/>
<path d="M59.1614 13.0107H57.8691V12.6472H59.0474C61.7461 12.6472 63.5515 11.2122 63.5515 7.92122C63.5515 5.49128 61.9171 2.90827 59.3895 2.90827H57.1469V22.0416H58.9904V22.4052H52.8329V22.0416H54.6763V2.90827H52.8329V2.54474H60.3587C64.2167 2.54474 66.1931 4.87901 66.1931 7.72988C66.1931 9.96849 64.9959 12.3984 61.9361 12.7046C66.5542 13.5082 64.8628 21.8694 69.2529 21.8694C69.652 21.8694 70.0701 21.7738 70.3552 21.6398L70.4692 21.9651C70.0321 22.386 68.9868 22.7878 68.1506 22.7878C61.651 22.7878 63.4565 13.0107 59.1614 13.0107Z" fill="#010001"/>
<path d="M79.5724 14.7901V2.90827H77.729V2.54474H83.8865V2.90827H82.043V15.3832C82.119 19.2099 83.6394 21.7929 87.4593 21.7929C89.8919 21.7929 92.6286 19.8796 92.6286 15.058V2.90827H90.7852V2.54474H95.0992V2.90827H93.2558V15.4406C93.2558 20.2814 90.291 22.7878 86.7372 22.7878C83.2783 22.7878 79.5724 20.6066 79.5724 14.7901Z" fill="#010001"/>
<path d="M146.032 2.52562C148.692 2.54475 150.916 3.55882 152.702 5.58696C154.413 7.53856 155.249 9.87283 155.249 12.5898C155.23 15.4024 154.356 17.794 152.607 19.7648C150.783 21.8121 148.502 22.8261 145.747 22.807C142.934 22.7879 140.653 21.7738 138.905 19.7648C137.232 17.8323 136.396 15.4406 136.396 12.5706C136.415 9.49016 137.461 6.98369 139.551 5.05122C141.337 3.34835 143.504 2.50648 146.032 2.52562ZM145.747 3.55882C144.017 3.55882 142.63 4.19022 141.585 5.47216C140.273 7.06023 139.627 9.41363 139.608 12.4941C139.589 15.6702 140.254 18.1002 141.604 19.8031C142.63 21.1041 143.979 21.7547 145.69 21.7547C147.932 21.7547 149.585 20.798 150.669 18.8846C151.524 17.3731 151.961 15.3832 151.961 12.9342C151.961 10.332 151.581 8.2465 150.783 6.65843C149.757 4.61116 148.065 3.57795 145.747 3.55882Z" fill="#010001"/>
<path d="M114.997 21.0467V22.7878H115.339L115.244 21.7355V21.7546C115.757 21.946 116.783 22.3286 117.316 22.5008C117.962 22.6922 118.627 22.7878 119.292 22.7878C120.337 22.7878 121.269 22.6348 122.029 22.3478C122.808 22.0608 123.454 21.659 123.967 21.1615C124.48 20.664 124.86 20.0709 125.108 19.3821C125.222 19.1142 125.45 17.9662 125.431 17.9471C125.45 17.6984 125.469 17.4496 125.469 17.2009C125.469 16.4164 125.374 15.7276 125.184 15.1154C124.993 14.5031 124.708 13.9674 124.328 13.489C123.948 13.0107 123.473 12.5706 122.903 12.188C122.333 11.8053 121.687 11.4418 120.945 11.0974C120.185 10.753 119.558 10.4468 119.045 10.1598C118.912 10.0833 118.589 9.85369 118.551 9.79629C118 9.16489 117.563 8.45695 117.354 7.61508C116.745 5.07034 118.551 2.98481 120.565 2.73607C121.554 2.62127 122.542 2.67867 123.473 3.08047C123.872 3.25267 124.233 3.48227 124.537 3.78841C124.708 3.94147 124.898 4.09454 125.089 4.28588H125.26V2.54474H124.917L124.993 3.36747C124.48 3.17614 123.454 3.00394 122.922 2.85087C122.276 2.65954 121.611 2.56387 120.945 2.56387C119.9 2.56387 118.969 2.71694 118.209 3.00394C117.43 3.29094 116.783 3.69274 116.27 4.19021C115.757 4.68768 115.377 5.28081 115.13 5.96961C114.883 6.63928 114.75 7.36635 114.75 8.15082C114.75 8.93528 114.845 9.62409 115.035 10.2364C115.225 10.8486 115.51 11.3844 115.89 11.8627C116.27 12.341 116.745 12.7811 117.316 13.1638C117.886 13.5464 118.532 13.91 119.273 14.2544C119.995 14.5796 122.523 16.3782 122.865 17.7366C123.492 20.2814 121.668 22.3669 119.653 22.6156C118.665 22.7304 117.677 22.673 116.745 22.2712C116.346 22.099 115.985 21.8694 115.681 21.5633C115.51 21.4102 115.32 21.2572 115.13 21.085V21.0658" fill="#010001"/>
<path d="M114.56 21.0467C114.37 21.2189 114.18 21.372 114.009 21.525C113.686 21.812 113.325 22.0608 112.945 22.233C112.013 22.6539 111.025 22.7113 110.037 22.5774C108.022 22.3286 106.198 20.2431 106.825 17.6984C107.167 16.3399 109.695 14.5414 110.417 14.2161C111.158 13.8717 111.804 13.5273 112.374 13.1255C112.945 12.7428 113.42 12.3028 113.8 11.8244C114.18 11.3461 114.465 10.8104 114.655 10.1981C114.845 9.58582 114.94 8.89701 114.94 8.11255C114.94 7.32808 114.807 6.62014 114.56 5.93134C114.313 5.26167 113.933 4.66854 113.42 4.15194C112.907 3.63534 112.26 3.25267 111.481 2.94654C110.702 2.65954 109.79 2.50647 108.745 2.50647C108.079 2.50647 107.414 2.60214 106.768 2.79347C106.236 2.94654 105.21 3.13787 104.697 3.31007L104.773 2.48734H104.43V4.22847H104.602C104.811 4.05627 104.982 3.9032 105.153 3.731C105.476 3.444 105.837 3.19527 106.217 3.02307C107.148 2.60214 108.136 2.54474 109.125 2.67867C111.139 2.9274 112.926 5.01294 112.336 7.55768C112.146 8.39955 111.709 9.10748 111.139 9.73888C111.101 9.79628 110.759 10.0259 110.645 10.1024C110.151 10.3703 109.505 10.6956 108.745 11.04C108.003 11.3652 107.357 11.7288 106.787 12.1306C106.217 12.5132 105.742 12.9533 105.362 13.4316C104.982 13.91 104.697 14.4648 104.506 15.058C104.316 15.6702 104.221 16.359 104.221 17.1435C104.221 17.3922 104.24 17.641 104.259 17.8897C104.259 17.8897 104.468 19.0568 104.583 19.3247C104.83 19.9944 105.21 20.5875 105.723 21.1041C106.236 21.6016 106.882 22.0034 107.661 22.2904C108.44 22.5774 109.353 22.7304 110.398 22.7304C111.063 22.7304 111.728 22.6348 112.374 22.4434C112.907 22.2904 113.952 21.8886 114.446 21.6972V21.6781L114.351 22.7304H114.693V21.0467" fill="#010001"/>
<path d="M157.073 3.82666C157.073 3.69273 157.035 3.57793 156.959 3.48226C156.883 3.38659 156.769 3.34833 156.636 3.34833C156.674 3.34833 156.598 3.34833 156.408 3.36746V4.30499C156.465 4.32413 156.56 4.32413 156.674 4.32413C156.94 4.34326 157.073 4.17106 157.073 3.82666ZM157.624 5.2234C157.472 5.2234 157.339 5.18513 157.225 5.08946C157.13 5.01293 157.054 4.91726 156.959 4.76419C156.883 4.64939 156.826 4.53459 156.75 4.40066C156.712 4.40066 156.655 4.41979 156.617 4.41979C156.56 4.41979 156.465 4.40066 156.37 4.38153V4.93639C156.37 5.01293 156.408 5.08946 156.465 5.12773C156.522 5.166 156.598 5.18513 156.674 5.18513L156.693 5.2234V5.24253H155.876V5.18513H155.895C155.99 5.18513 156.047 5.166 156.085 5.12773C156.123 5.08946 156.142 5.03206 156.142 4.93639V3.53966C156.142 3.42486 156.047 3.36746 155.876 3.36746V3.31006C156.009 3.29093 156.18 3.29093 156.427 3.29093C156.693 3.29093 156.902 3.31006 157.016 3.36746C157.225 3.44399 157.32 3.59706 157.32 3.82666C157.32 4.05626 157.206 4.22846 156.959 4.34326L157.377 4.97466C157.453 5.08946 157.529 5.14686 157.605 5.14686L157.624 5.2234ZM158.062 4.28586C158.062 3.90319 157.929 3.59706 157.662 3.32919C157.396 3.06133 157.073 2.92739 156.693 2.92739C156.313 2.92739 156.009 3.06133 155.743 3.32919C155.477 3.59706 155.344 3.92233 155.344 4.28586C155.344 4.66853 155.477 4.97466 155.743 5.24253C156.009 5.5104 156.332 5.64433 156.693 5.64433C157.073 5.64433 157.396 5.5104 157.662 5.24253C157.929 4.9938 158.062 4.66853 158.062 4.28586ZM158.157 4.28586C158.157 4.68766 158.005 5.03206 157.719 5.31906C157.434 5.60606 157.092 5.75913 156.674 5.75913C156.275 5.75913 155.933 5.60606 155.648 5.31906C155.363 5.03206 155.211 4.68766 155.211 4.28586C155.211 3.88406 155.363 3.53966 155.648 3.25266C155.933 2.96566 156.275 2.81259 156.674 2.81259C157.073 2.81259 157.415 2.96566 157.719 3.25266C158.024 3.53966 158.157 3.88406 158.157 4.28586Z" fill="#010001"/>
<path d="M49.9442 31.6083C49.8112 31.6848 49.6211 31.7231 49.3551 31.7231C48.5378 31.7231 47.9677 31.0726 47.9677 29.6567C47.9677 28.0112 48.7849 27.4946 49.4311 27.4946C49.6781 27.4946 49.8682 27.552 49.9442 27.5903L49.8302 27.9921C49.7351 27.9538 49.6211 27.8964 49.4121 27.8964C48.975 27.8964 48.4618 28.3365 48.4618 29.5993C48.4618 30.8812 48.9369 31.3022 49.4311 31.3022C49.6021 31.3022 49.7732 31.2639 49.8682 31.2065L49.9442 31.6083Z" fill="#010001"/>
<path d="M58.3442 30.4412L58.0592 31.6849H57.6031L58.5533 27.5138H59.0664L59.9786 31.6849H59.5035L59.2184 30.4412H58.3442ZM59.1994 30.0585L58.9904 29.0062C58.9334 28.7001 58.8764 28.3557 58.8193 28.0495H58.8003C58.7433 28.3557 58.6863 28.7192 58.6293 29.0062L58.4202 30.0585H59.1994Z" fill="#010001"/>
<path d="M67.8845 27.5138H68.3597V31.2831H69.5189V31.6849H67.8845V27.5138Z" fill="#010001"/>
<path d="M77.1208 31.3979L78.5461 27.9347V27.9156H77.2348V27.5138H79.0593V27.8391L77.6719 31.2639V31.2831H79.0593V31.6849H77.1208V31.3979Z" fill="#010001"/>
<path d="M87.4973 30.4412L87.2123 31.6849H86.7561L87.7064 27.5138H88.2195L89.1317 31.6849H88.6566L88.3716 30.4412H87.4973ZM88.3525 30.0585L88.1435 29.0062C88.0865 28.7001 88.0295 28.3557 87.9724 28.0495H87.9534C87.8964 28.3557 87.8394 28.7192 87.7824 29.0062L87.5733 30.0585H88.3525Z" fill="#010001"/>
<path d="M97.0377 27.5712C97.2277 27.5138 97.4367 27.4946 97.6838 27.4946C98.1209 27.4946 98.425 27.6094 98.653 27.8008C98.9761 28.0878 99.2042 28.6235 99.2042 29.4845C99.2042 30.4412 98.9761 30.9578 98.7101 31.2448C98.444 31.5509 98.0449 31.704 97.5698 31.704C97.3797 31.704 97.1897 31.6848 97.0377 31.6657V27.5712ZM97.5128 31.3022C97.5888 31.3213 97.6458 31.3213 97.6838 31.3213C98.1969 31.3213 98.7101 30.9386 98.7101 29.5228C98.7101 28.4704 98.387 27.8964 97.7218 27.8964C97.6458 27.8964 97.5698 27.8964 97.4938 27.9156V31.3022H97.5128Z" fill="#010001"/>
<path d="M109.315 29.5611C109.315 31.13 108.783 31.7231 108.117 31.7231C107.433 31.7231 106.977 30.9961 106.977 29.5802C106.977 28.2026 107.471 27.4564 108.193 27.4564C108.897 27.4564 109.315 28.2409 109.315 29.5611ZM107.452 29.5993C107.452 30.4603 107.623 31.3213 108.136 31.3213C108.668 31.3213 108.821 30.4029 108.821 29.5993C108.821 28.8149 108.687 27.8965 108.136 27.8965C107.623 27.8773 107.452 28.7575 107.452 29.5993Z" fill="#010001"/>
</svg>
