<svg width="158" height="37" viewBox="0 0 158 37" fill="none" xmlns="http://www.w3.org/2000/svg">
<path d="M1 10.5023C1 5.16726 4.36382 0.693298 10.5403 0.693298C13.372 0.693298 15.2155 1.49824 17.1159 3.10812V7.22641H16.7358C16.3177 4.23129 13.8281 1.03025 10.5403 1.03025C6.26428 1.03025 4.05975 5.65397 4.05975 10.4836C4.05975 15.3694 6.26428 19.8246 10.8634 19.8246C14.7023 19.8246 16.4318 17.129 16.7548 14.9388H17.1159V17.7281C15.4435 19.469 13.144 20.1616 10.6353 20.1616C3.8887 20.199 1 15.6689 1 10.5023Z" fill="#010001"/>
<path d="M28.1008 19.8246L35.1896 0.693298L42.7724 19.8246H44.2358V20.1803H39.9027V19.8246H42.1453L39.6937 13.6285H33.042L30.7425 19.8246H32.928V20.1803H26.7705V19.8246H28.1008ZM39.5606 13.2728L36.2728 4.94262L33.1941 13.2728H39.5606Z" fill="#010001"/>
<path d="M58.2992 10.7831H57.0069V10.4275H58.1852C60.8839 10.4275 62.6893 9.02352 62.6893 5.80376C62.6893 3.42638 61.0549 0.89925 58.5273 0.89925H56.2848V19.6188H58.1282V19.9744H51.9707V19.6188H53.8142V0.89925H51.9707V0.543579H59.4965C63.3545 0.543579 65.331 2.82736 65.331 5.61657C65.331 7.80675 64.1337 10.1841 61.0739 10.4836C65.6921 11.2699 64.0006 19.4503 68.3907 19.4503C68.7898 19.4503 69.2079 19.3567 69.493 19.2256L69.607 19.5439C69.1699 19.9557 68.1247 20.3488 67.2884 20.3488C60.7889 20.3488 62.5943 10.7831 58.2992 10.7831Z" fill="#010001"/>
<path d="M78.7097 12.5241V0.89925H76.8662V0.543579H83.0237V0.89925H81.1803V13.1044C81.2563 16.8483 82.7767 19.3754 86.5966 19.3754C89.0292 19.3754 91.7659 17.5034 91.7659 12.7861V0.89925H89.9224V0.543579H94.2365V0.89925H92.393V13.1605C92.393 17.8966 89.4283 20.3488 85.8744 20.3488C82.4156 20.3488 78.7097 18.2148 78.7097 12.5241Z" fill="#010001"/>
<path d="M145.17 0.524787C147.83 0.543507 150.054 1.53564 151.84 3.51991C153.551 5.4293 154.387 7.71308 154.387 10.3712C154.368 13.123 153.494 15.463 151.745 17.3911C149.921 19.394 147.64 20.3862 144.884 20.3675C142.072 20.3487 139.791 19.3566 138.043 17.3911C136.37 15.5004 135.534 13.1605 135.534 10.3525C135.553 7.33869 136.598 4.88643 138.689 2.99576C140.475 1.32973 142.642 0.506068 145.17 0.524787ZM144.884 1.53564C143.155 1.53564 141.768 2.15338 140.722 3.40759C139.411 4.96131 138.765 7.26381 138.746 10.2776C138.727 13.3851 139.392 15.7625 140.741 17.4285C141.768 18.7014 143.117 19.3379 144.827 19.3379C147.07 19.3379 148.723 18.4019 149.807 16.53C150.662 15.0511 151.099 13.1043 151.099 10.7082C151.099 8.16234 150.719 6.12192 149.921 4.5682C148.894 2.56521 147.203 1.55436 144.884 1.53564Z" fill="#010001"/>
<path d="M114.135 18.6453V20.3488H114.477L114.382 19.3192V19.338C114.895 19.5252 115.921 19.8995 116.453 20.068C117.099 20.2552 117.765 20.3488 118.43 20.3488C119.475 20.3488 120.406 20.1991 121.166 19.9183C121.946 19.6375 122.592 19.2444 123.105 18.7577C123.618 18.2709 123.998 17.6906 124.245 17.0167C124.359 16.7547 124.587 15.6315 124.568 15.6128C124.587 15.3694 124.606 15.1261 124.606 14.8827C124.606 14.1152 124.511 13.4413 124.321 12.8423C124.131 12.2433 123.846 11.7191 123.466 11.2511C123.086 10.7831 122.611 10.3526 122.041 9.97821C121.471 9.60382 120.824 9.24815 120.083 8.9112C119.323 8.57425 118.696 8.27473 118.183 7.99394C118.05 7.91906 117.727 7.69443 117.689 7.63827C117.137 7.02053 116.7 6.32791 116.491 5.50425C115.883 3.01455 117.689 0.974128 119.703 0.730774C120.691 0.618457 121.68 0.674616 122.611 1.06773C123.01 1.2362 123.371 1.46083 123.675 1.76035C123.846 1.9101 124.036 2.05986 124.226 2.24705H124.397V0.543579H124.055L124.131 1.34852C123.618 1.16132 122.592 0.992847 122.06 0.843091C121.414 0.655896 120.748 0.562298 120.083 0.562298C119.038 0.562298 118.107 0.712055 117.347 0.992847C116.567 1.27364 115.921 1.66675 115.408 2.15346C114.895 2.64016 114.515 3.22047 114.268 3.89437C114.021 4.54955 113.888 5.26089 113.888 6.02839C113.888 6.79589 113.983 7.4698 114.173 8.06882C114.363 8.66784 114.648 9.19199 115.028 9.65998C115.408 10.128 115.883 10.5585 116.453 10.9329C117.023 11.3073 117.67 11.663 118.411 11.9999C119.133 12.3181 121.661 14.0778 122.003 15.4069C122.63 17.8966 120.805 19.937 118.791 20.1803C117.803 20.2927 116.814 20.2365 115.883 19.8434C115.484 19.6749 115.123 19.4503 114.819 19.1508C114.648 19.001 114.458 18.8513 114.268 18.6828V18.6641" fill="#010001"/>
<path d="M113.698 18.6453C113.508 18.8138 113.318 18.9635 113.147 19.1133C112.824 19.3941 112.463 19.6374 112.082 19.8059C111.151 20.2177 110.163 20.2739 109.175 20.1428C107.16 19.8995 105.336 17.8591 105.963 15.3694C106.305 14.0403 108.833 12.2807 109.555 11.9624C110.296 11.6255 110.942 11.2885 111.512 10.8954C112.082 10.521 112.558 10.0905 112.938 9.62248C113.318 9.1545 113.603 8.63035 113.793 8.03133C113.983 7.4323 114.078 6.7584 114.078 5.9909C114.078 5.2234 113.945 4.53078 113.698 3.85688C113.451 3.20169 113.071 2.62139 112.558 2.11596C112.044 1.61054 111.398 1.23615 110.619 0.936634C109.84 0.655841 108.928 0.506085 107.882 0.506085C107.217 0.506085 106.552 0.599683 105.906 0.786878C105.374 0.936634 104.348 1.12383 103.834 1.2923L103.911 0.487366H103.568V2.19084H103.739C103.949 2.02237 104.12 1.87261 104.291 1.70413C104.614 1.42334 104.975 1.17999 105.355 1.01151C106.286 0.599683 107.274 0.543524 108.263 0.674561C110.277 0.917914 112.063 2.95834 111.474 5.44803C111.284 6.27169 110.847 6.96431 110.277 7.58206C110.239 7.63822 109.897 7.86285 109.783 7.93773C109.289 8.1998 108.643 8.51803 107.882 8.85498C107.141 9.17322 106.495 9.52889 105.925 9.922C105.355 10.2964 104.88 10.7269 104.5 11.1949C104.12 11.6629 103.834 12.2058 103.644 12.7861C103.454 13.3851 103.359 14.059 103.359 14.8265C103.359 15.0699 103.378 15.3132 103.397 15.5566C103.397 15.5566 103.606 16.6985 103.72 16.9605C103.968 17.6157 104.348 18.196 104.861 18.7014C105.374 19.1882 106.02 19.5813 106.799 19.8621C107.578 20.1428 108.491 20.2926 109.536 20.2926C110.201 20.2926 110.866 20.199 111.512 20.0118C112.044 19.8621 113.09 19.4689 113.584 19.2817V19.263L113.489 20.2926H113.831V18.6453" fill="#010001"/>
<path d="M156.211 1.79774C156.211 1.6667 156.173 1.55438 156.097 1.46079C156.021 1.36719 155.907 1.32975 155.774 1.32975C155.812 1.32975 155.736 1.32975 155.546 1.34847V2.26572C155.603 2.28444 155.698 2.28444 155.812 2.28444C156.078 2.30316 156.211 2.13469 156.211 1.79774ZM156.762 3.16426C156.61 3.16426 156.477 3.12682 156.363 3.03322C156.268 2.95835 156.192 2.86475 156.097 2.71499C156.021 2.60267 155.964 2.49036 155.888 2.35932C155.85 2.35932 155.793 2.37804 155.755 2.37804C155.698 2.37804 155.603 2.35932 155.508 2.3406V2.88347C155.508 2.95835 155.546 3.03322 155.603 3.07066C155.66 3.1081 155.736 3.12682 155.812 3.12682L155.831 3.16426V3.18298H155.014V3.12682H155.033C155.128 3.12682 155.185 3.1081 155.223 3.07066C155.261 3.03322 155.28 2.97706 155.28 2.88347V1.51694C155.28 1.40463 155.185 1.34847 155.014 1.34847V1.29231C155.147 1.27359 155.318 1.27359 155.565 1.27359C155.831 1.27359 156.04 1.29231 156.154 1.34847C156.363 1.42335 156.458 1.5731 156.458 1.79774C156.458 2.02237 156.344 2.19085 156.097 2.30316L156.515 2.92091C156.591 3.03322 156.667 3.08938 156.743 3.08938L156.762 3.16426ZM157.199 2.247C157.199 1.87261 157.066 1.5731 156.8 1.31103C156.534 1.04896 156.211 0.91792 155.831 0.91792C155.451 0.91792 155.147 1.04896 154.881 1.31103C154.615 1.5731 154.482 1.89133 154.482 2.247C154.482 2.62139 154.615 2.92091 154.881 3.18298C155.147 3.44505 155.47 3.57609 155.831 3.57609C156.211 3.57609 156.534 3.44505 156.8 3.18298C157.066 2.93963 157.199 2.62139 157.199 2.247ZM157.294 2.247C157.294 2.64011 157.142 2.97706 156.857 3.25786C156.572 3.53865 156.23 3.68841 155.812 3.68841C155.413 3.68841 155.071 3.53865 154.786 3.25786C154.501 2.97706 154.349 2.64011 154.349 2.247C154.349 1.8539 154.501 1.51694 154.786 1.23615C155.071 0.955359 155.413 0.805603 155.812 0.805603C156.211 0.805603 156.553 0.955359 156.857 1.23615C157.161 1.51694 157.294 1.8539 157.294 2.247Z" fill="#010001"/>
<path d="M21.5923 31.2861C21.5454 32.0038 21.3521 32.5312 21.0122 32.8681C20.6724 33.2021 20.2021 33.3691 19.6016 33.3691C18.9834 33.3691 18.4956 33.1362 18.1382 32.6703C17.7808 32.2016 17.6006 31.5659 17.5977 30.7631V29.3745C17.5977 28.5688 17.7793 27.9374 18.1426 27.4804C18.5088 27.0234 19.0083 26.7949 19.6411 26.7949C20.2388 26.7949 20.7017 26.9662 21.0298 27.309C21.3579 27.6518 21.5454 28.1777 21.5923 28.8867H21.0825C21.0356 28.3066 20.8979 27.892 20.6694 27.643C20.4438 27.394 20.1011 27.2695 19.6411 27.2695C19.1577 27.2695 18.7812 27.4496 18.5117 27.81C18.2422 28.1703 18.1074 28.6933 18.1074 29.3788V30.7499C18.1074 31.4296 18.2378 31.9584 18.4985 32.3364C18.7593 32.7143 19.127 32.9033 19.6016 32.9033C20.0996 32.9033 20.46 32.7787 20.6826 32.5297C20.9053 32.2807 21.0386 31.8661 21.0825 31.2861H21.5923ZM27.5539 31.4926H25.1545L24.6096 33.2812H24.0866L26.1257 26.8828H26.5915L28.6306 33.2812H28.1076L27.5539 31.4926ZM25.2995 31.0224H27.4089L26.3542 27.5903L25.2995 31.0224ZM31.8896 32.8154H34.5263V33.2812H31.3842V26.8828H31.8896V32.8154ZM37.6051 32.8154H40.8966V33.2812H37.0206V32.8637L40.1847 27.353H37.1085V26.8828H40.7779V27.2827L37.6051 32.8154ZM46.8318 31.4926H44.4324L43.8875 33.2812H43.3646L45.4036 26.8828H45.8694L47.9085 33.2812H47.3855L46.8318 31.4926ZM44.5774 31.0224H46.6868L45.6321 27.5903L44.5774 31.0224ZM50.6621 33.2812V26.8828H52.1694C52.8638 26.8828 53.4131 27.1054 53.8174 27.5507C54.2217 27.9931 54.4297 28.6039 54.4414 29.3832V30.7236C54.4414 31.5263 54.2363 32.1533 53.8262 32.6044C53.4189 33.0556 52.8462 33.2812 52.1079 33.2812H50.6621ZM51.1631 27.3574V32.8154H52.1343C52.7056 32.8154 53.1479 32.6396 53.4614 32.288C53.7749 31.9335 53.936 31.4282 53.9448 30.7719V29.4316C53.9448 28.7753 53.791 28.2656 53.4834 27.9023C53.1787 27.539 52.7363 27.3574 52.1562 27.3574H51.1631ZM61.5632 30.7763C61.5632 31.6025 61.3815 32.2411 61.0183 32.6923C60.6579 33.1435 60.1511 33.3691 59.4978 33.3691C58.8503 33.3691 58.342 33.1435 57.9729 32.6923C57.6066 32.2411 57.4221 31.6069 57.4191 30.7895V29.3964C57.4191 28.5732 57.6022 27.9345 57.9685 27.4804C58.3347 27.0234 58.8415 26.7949 59.489 26.7949C60.1452 26.7949 60.655 27.0234 61.0183 27.4804C61.3815 27.9374 61.5632 28.5805 61.5632 29.4096V30.7763ZM61.0578 29.3876C61.0578 28.6874 60.923 28.1616 60.6535 27.81C60.384 27.4584 59.9958 27.2827 59.489 27.2827C58.9997 27.2827 58.6174 27.4555 58.342 27.8012C58.0666 28.144 57.926 28.6581 57.9201 29.3437V30.7763C57.9201 31.4794 58.0593 32.0082 58.3376 32.3627C58.6159 32.7143 59.0026 32.8901 59.4978 32.8901C60.0075 32.8901 60.3942 32.7143 60.6579 32.3627C60.9245 32.0112 61.0578 31.4824 61.0578 30.7763V29.3876ZM69.3468 29.8007C69.1124 29.4667 68.9498 29.1811 68.859 28.9438C68.7682 28.7065 68.7228 28.4765 68.7228 28.2538C68.7228 27.7997 68.837 27.4438 69.0655 27.186C69.294 26.9252 69.5987 26.7949 69.9796 26.7949C70.3224 26.7949 70.6036 26.9135 70.8233 27.1508C71.0431 27.3852 71.1529 27.6855 71.1529 28.0517C71.1529 28.4765 70.9596 28.8808 70.5729 29.2646L69.9532 29.8315L71.3946 31.8442C71.6026 31.4223 71.7066 30.9462 71.7066 30.416H72.1549C72.1549 31.1454 71.9981 31.7548 71.6847 32.2441L72.4273 33.2812H71.8385L71.3902 32.6572C71.1969 32.8798 70.9742 33.0541 70.7223 33.1801C70.4703 33.3061 70.2066 33.3691 69.9313 33.3691C69.4215 33.3691 69.0143 33.2123 68.7096 32.8989C68.4049 32.5854 68.2525 32.1679 68.2525 31.6464C68.2525 31.3388 68.3287 31.0473 68.4811 30.7719C68.6363 30.4936 68.9249 30.1699 69.3468 29.8007ZM69.9313 32.9164C70.3766 32.9164 70.7721 32.704 71.1178 32.2792L69.6368 30.205L69.5929 30.1523L69.4347 30.2973C68.9688 30.7543 68.7359 31.204 68.7359 31.6464C68.7359 32.0302 68.8443 32.3378 69.0611 32.5693C69.2779 32.8007 69.568 32.9164 69.9313 32.9164ZM69.2105 28.2363C69.2105 28.582 69.3746 28.9965 69.7027 29.4799L70.1642 29.058C70.3194 28.9233 70.4454 28.7768 70.5421 28.6186C70.6417 28.4575 70.6915 28.2685 70.6915 28.0517C70.6915 27.8232 70.6256 27.6328 70.4938 27.4804C70.3648 27.3281 70.192 27.2519 69.9752 27.2519C69.7467 27.2519 69.5621 27.3427 69.4215 27.5244C69.2809 27.7031 69.2105 27.9404 69.2105 28.2363ZM81.8896 31.4926H79.4902L78.9453 33.2812H78.4224L80.4614 26.8828H80.9272L82.9663 33.2812H82.4434L81.8896 31.4926ZM79.6353 31.0224H81.7446L80.6899 27.5903L79.6353 31.0224ZM89.5036 31.2861C89.4567 32.0038 89.2634 32.5312 88.9235 32.8681C88.5837 33.2021 88.1135 33.3691 87.5129 33.3691C86.8947 33.3691 86.4069 33.1362 86.0495 32.6703C85.6921 32.2016 85.5119 31.5659 85.509 30.7631V29.3745C85.509 28.5688 85.6906 27.9374 86.0539 27.4804C86.4201 27.0234 86.9196 26.7949 87.5524 26.7949C88.1501 26.7949 88.613 26.9662 88.9411 27.309C89.2692 27.6518 89.4567 28.1777 89.5036 28.8867H88.9939C88.947 28.3066 88.8093 27.892 88.5808 27.643C88.3552 27.394 88.0124 27.2695 87.5524 27.2695C87.069 27.2695 86.6926 27.4496 86.423 27.81C86.1535 28.1703 86.0188 28.6933 86.0188 29.3788V30.7499C86.0188 31.4296 86.1491 31.9584 86.4099 32.3364C86.6706 32.7143 87.0383 32.9033 87.5129 32.9033C88.0109 32.9033 88.3713 32.7787 88.5939 32.5297C88.8166 32.2807 88.9499 31.8661 88.9939 31.2861H89.5036ZM96.3925 31.2861C96.3456 32.0038 96.1522 32.5312 95.8124 32.8681C95.4726 33.2021 95.0023 33.3691 94.4018 33.3691C93.7836 33.3691 93.2958 33.1362 92.9384 32.6703C92.581 32.2016 92.4008 31.5659 92.3979 30.7631V29.3745C92.3979 28.5688 92.5795 27.9374 92.9428 27.4804C93.309 27.0234 93.8085 26.7949 94.4413 26.7949C95.039 26.7949 95.5019 26.9662 95.83 27.309C96.1581 27.6518 96.3456 28.1777 96.3925 28.8867H95.8827C95.8358 28.3066 95.6981 27.892 95.4696 27.643C95.244 27.394 94.9013 27.2695 94.4413 27.2695C93.9579 27.2695 93.5814 27.4496 93.3119 27.81C93.0424 28.1703 92.9076 28.6933 92.9076 29.3788V30.7499C92.9076 31.4296 93.038 31.9584 93.2987 32.3364C93.5595 32.7143 93.9271 32.9033 94.4018 32.9033C94.8998 32.9033 95.2602 32.7787 95.4828 32.5297C95.7055 32.2807 95.8388 31.8661 95.8827 31.2861H96.3925ZM102.429 30.2182H99.9459V32.8154H102.802V33.2812H99.4449V26.8828H102.78V27.3574H99.9459V29.7524H102.429V30.2182ZM108.724 31.7079C108.724 31.3505 108.622 31.0693 108.417 30.8642C108.215 30.6591 107.835 30.4628 107.279 30.2753C106.722 30.0878 106.313 29.8784 106.053 29.6469C105.71 29.3452 105.538 28.9467 105.538 28.4516C105.538 27.9623 105.707 27.5639 106.044 27.2563C106.381 26.9487 106.816 26.7949 107.349 26.7949C107.894 26.7949 108.339 26.9736 108.685 27.331C109.031 27.6884 109.203 28.1484 109.203 28.7109H108.698C108.698 28.2802 108.576 27.933 108.333 27.6694C108.093 27.4028 107.765 27.2695 107.349 27.2695C106.945 27.2695 106.625 27.3793 106.391 27.5991C106.159 27.8159 106.044 28.0971 106.044 28.4428C106.044 28.7651 106.154 29.0287 106.373 29.2338C106.593 29.4389 106.943 29.622 107.424 29.7831C107.904 29.9413 108.267 30.1069 108.513 30.2797C108.76 30.4496 108.941 30.6503 109.058 30.8818C109.176 31.1132 109.234 31.3857 109.234 31.6992C109.234 32.2001 109.064 32.6044 108.724 32.912C108.387 33.2167 107.941 33.3691 107.384 33.3691C107.009 33.3691 106.666 33.2929 106.356 33.1406C106.048 32.9853 105.806 32.7641 105.631 32.477C105.458 32.187 105.371 31.8456 105.371 31.4531H105.872C105.872 31.9042 106.009 32.2587 106.281 32.5165C106.554 32.7744 106.921 32.9033 107.384 32.9033C107.788 32.9033 108.112 32.7949 108.355 32.5781C108.601 32.3613 108.724 32.0712 108.724 31.7079ZM116.145 30.7763C116.145 31.6025 115.963 32.2411 115.6 32.6923C115.24 33.1435 114.733 33.3691 114.08 33.3691C113.432 33.3691 112.924 33.1435 112.555 32.6923C112.188 32.2411 112.004 31.6069 112.001 30.7895V29.3964C112.001 28.5732 112.184 27.9345 112.55 27.4804C112.917 27.0234 113.423 26.7949 114.071 26.7949C114.727 26.7949 115.237 27.0234 115.6 27.4804C115.963 27.9374 116.145 28.5805 116.145 29.4096V30.7763ZM115.64 29.3876C115.64 28.6874 115.505 28.1616 115.235 27.81C114.966 27.4584 114.578 27.2827 114.071 27.2827C113.582 27.2827 113.199 27.4555 112.924 27.8012C112.648 28.144 112.508 28.6581 112.502 29.3437V30.7763C112.502 31.4794 112.641 32.0082 112.919 32.3627C113.198 32.7143 113.584 32.8901 114.08 32.8901C114.589 32.8901 114.976 32.7143 115.24 32.3627C115.506 32.0112 115.64 31.4824 115.64 30.7763V29.3876ZM121.276 30.6181H119.782V33.2812H119.277V26.8828H121.03C121.613 26.8828 122.064 27.0497 122.383 27.3837C122.706 27.7148 122.867 28.1762 122.867 28.768C122.867 29.1811 122.767 29.5444 122.568 29.8578C122.369 30.1684 122.101 30.3837 121.764 30.5038L123.095 33.2241V33.2812H122.559L121.276 30.6181ZM119.782 30.1523H121.118C121.496 30.1523 121.798 30.0234 122.023 29.7656C122.249 29.5048 122.362 29.1723 122.362 28.768C122.362 28.3198 122.244 27.9726 122.01 27.7265C121.776 27.4804 121.447 27.3574 121.026 27.3574H119.782V30.1523ZM126.627 33.2812H126.126V26.8828H126.627V33.2812ZM133.999 30.7763C133.999 31.6025 133.817 32.2411 133.454 32.6923C133.094 33.1435 132.587 33.3691 131.934 33.3691C131.286 33.3691 130.778 33.1435 130.409 32.6923C130.043 32.2411 129.858 31.6069 129.855 30.7895V29.3964C129.855 28.5732 130.038 27.9345 130.404 27.4804C130.771 27.0234 131.277 26.7949 131.925 26.7949C132.581 26.7949 133.091 27.0234 133.454 27.4804C133.817 27.9374 133.999 28.5805 133.999 29.4096V30.7763ZM133.494 29.3876C133.494 28.6874 133.359 28.1616 133.089 27.81C132.82 27.4584 132.432 27.2827 131.925 27.2827C131.436 27.2827 131.053 27.4555 130.778 27.8012C130.503 28.144 130.362 28.6581 130.356 29.3437V30.7763C130.356 31.4794 130.495 32.0082 130.774 32.3627C131.052 32.7143 131.439 32.8901 131.934 32.8901C132.443 32.8901 132.83 32.7143 133.094 32.3627C133.36 32.0112 133.494 31.4824 133.494 30.7763V29.3876ZM140.145 31.7079C140.145 31.3505 140.043 31.0693 139.838 30.8642C139.636 30.6591 139.256 30.4628 138.7 30.2753C138.143 30.0878 137.734 29.8784 137.473 29.6469C137.131 29.3452 136.959 28.9467 136.959 28.4516C136.959 27.9623 137.128 27.5639 137.465 27.2563C137.802 26.9487 138.237 26.7949 138.77 26.7949C139.315 26.7949 139.76 26.9736 140.106 27.331C140.451 27.6884 140.624 28.1484 140.624 28.7109H140.119C140.119 28.2802 139.997 27.933 139.754 27.6694C139.514 27.4028 139.186 27.2695 138.77 27.2695C138.366 27.2695 138.046 27.3793 137.812 27.5991C137.58 27.8159 137.465 28.0971 137.465 28.4428C137.465 28.7651 137.575 29.0287 137.794 29.2338C138.014 29.4389 138.364 29.622 138.845 29.7831C139.325 29.9413 139.688 30.1069 139.934 30.2797C140.18 30.4496 140.362 30.6503 140.479 30.8818C140.596 31.1132 140.655 31.3857 140.655 31.6992C140.655 32.2001 140.485 32.6044 140.145 32.912C139.808 33.2167 139.362 33.3691 138.805 33.3691C138.43 33.3691 138.087 33.2929 137.777 33.1406C137.469 32.9853 137.227 32.7641 137.052 32.477C136.879 32.187 136.792 31.8456 136.792 31.4531H137.293C137.293 31.9042 137.429 32.2587 137.702 32.5165C137.974 32.7744 138.342 32.9033 138.805 32.9033C139.209 32.9033 139.533 32.7949 139.776 32.5781C140.022 32.3613 140.145 32.0712 140.145 31.7079Z" fill="black"/>
</svg>
