<svg width="157" height="36" viewBox="0 0 157 36" fill="none" xmlns="http://www.w3.org/2000/svg">
<path d="M0 10.5023C0 5.16726 3.36382 0.693298 9.54032 0.693298C12.372 0.693298 14.2155 1.49824 16.1159 3.10812V7.22641H15.7358C15.3177 4.23129 12.8281 1.03025 9.54032 1.03025C5.26428 1.03025 3.05975 5.65397 3.05975 10.4836C3.05975 15.3694 5.26428 19.8246 9.8634 19.8246C13.7023 19.8246 15.4318 17.129 15.7548 14.9388H16.1159V17.7281C14.4435 19.469 12.144 20.1616 9.63535 20.1616C2.8887 20.199 0 15.6689 0 10.5023Z" fill="white"/>
<path d="M27.1008 19.8246L34.1896 0.693298L41.7724 19.8246H43.2358V20.1803H38.9027V19.8246H41.1453L38.6937 13.6285H32.042L29.7425 19.8246H31.928V20.1803H25.7705V19.8246H27.1008V19.8246ZM38.5606 13.2728L35.2728 4.94262L32.1941 13.2728H38.5606Z" fill="white"/>
<path d="M57.2992 10.7831H56.0069V10.4275H57.1852C59.8839 10.4275 61.6893 9.02352 61.6893 5.80376C61.6893 3.42638 60.0549 0.89925 57.5273 0.89925H55.2848V19.6188H57.1282V19.9744H50.9707V19.6188H52.8142V0.89925H50.9707V0.543579H58.4965C62.3545 0.543579 64.331 2.82736 64.331 5.61657C64.331 7.80675 63.1337 10.1841 60.0739 10.4836C64.6921 11.2699 63.0006 19.4503 67.3907 19.4503C67.7898 19.4503 68.2079 19.3567 68.493 19.2256L68.607 19.5439C68.1699 19.9557 67.1247 20.3488 66.2884 20.3488C59.7889 20.3488 61.5943 10.7831 57.2992 10.7831Z" fill="white"/>
<path d="M77.7097 12.5241V0.89925H75.8662V0.543579H82.0237V0.89925H80.1803V13.1044C80.2563 16.8483 81.7767 19.3754 85.5966 19.3754C88.0292 19.3754 90.7659 17.5034 90.7659 12.7861V0.89925H88.9224V0.543579H93.2365V0.89925H91.393V13.1605C91.393 17.8966 88.4283 20.3488 84.8744 20.3488C81.4156 20.3488 77.7097 18.2148 77.7097 12.5241Z" fill="white"/>
<path d="M144.17 0.524787C146.83 0.543507 149.054 1.53564 150.84 3.51991C152.551 5.4293 153.387 7.71308 153.387 10.3712C153.368 13.123 152.494 15.463 150.745 17.3911C148.921 19.394 146.64 20.3862 143.884 20.3675C141.072 20.3487 138.791 19.3566 137.043 17.3911C135.37 15.5004 134.534 13.1605 134.534 10.3525C134.553 7.33869 135.598 4.88643 137.689 2.99576C139.475 1.32973 141.642 0.506068 144.17 0.524787ZM143.884 1.53564C142.155 1.53564 140.768 2.15338 139.722 3.40759C138.411 4.96131 137.765 7.26381 137.746 10.2776C137.727 13.3851 138.392 15.7625 139.741 17.4285C140.768 18.7014 142.117 19.3379 143.827 19.3379C146.07 19.3379 147.723 18.4019 148.807 16.53C149.662 15.0511 150.099 13.1043 150.099 10.7082C150.099 8.16234 149.719 6.12192 148.921 4.5682C147.894 2.56521 146.203 1.55436 143.884 1.53564Z" fill="white"/>
<path d="M113.135 18.6453V20.3488H113.477L113.382 19.3192V19.338C113.895 19.5252 114.921 19.8995 115.453 20.068C116.099 20.2552 116.765 20.3488 117.43 20.3488C118.475 20.3488 119.406 20.1991 120.166 19.9183C120.946 19.6375 121.592 19.2444 122.105 18.7577C122.618 18.2709 122.998 17.6906 123.245 17.0167C123.359 16.7547 123.587 15.6315 123.568 15.6128C123.587 15.3694 123.606 15.1261 123.606 14.8827C123.606 14.1152 123.511 13.4413 123.321 12.8423C123.131 12.2433 122.846 11.7191 122.466 11.2511C122.086 10.7831 121.611 10.3526 121.041 9.97821C120.471 9.60382 119.824 9.24815 119.083 8.9112C118.323 8.57425 117.696 8.27473 117.183 7.99394C117.05 7.91906 116.727 7.69443 116.689 7.63827C116.137 7.02053 115.7 6.32791 115.491 5.50425C114.883 3.01455 116.689 0.974128 118.703 0.730774C119.691 0.618457 120.68 0.674616 121.611 1.06773C122.01 1.2362 122.371 1.46083 122.675 1.76035C122.846 1.9101 123.036 2.05986 123.226 2.24705H123.397V0.543579H123.055L123.131 1.34852C122.618 1.16132 121.592 0.992847 121.06 0.843091C120.414 0.655896 119.748 0.562298 119.083 0.562298C118.038 0.562298 117.107 0.712055 116.347 0.992847C115.567 1.27364 114.921 1.66675 114.408 2.15346C113.895 2.64016 113.515 3.22047 113.268 3.89437C113.021 4.54955 112.888 5.26089 112.888 6.02839C112.888 6.79589 112.983 7.4698 113.173 8.06882C113.363 8.66784 113.648 9.19199 114.028 9.65998C114.408 10.128 114.883 10.5585 115.453 10.9329C116.023 11.3073 116.67 11.663 117.411 11.9999C118.133 12.3181 120.661 14.0778 121.003 15.4069C121.63 17.8966 119.805 19.937 117.791 20.1803C116.803 20.2927 115.814 20.2365 114.883 19.8434C114.484 19.6749 114.123 19.4503 113.819 19.1508C113.648 19.001 113.458 18.8513 113.268 18.6828V18.6641" fill="white"/>
<path d="M112.698 18.6453C112.508 18.8138 112.318 18.9635 112.147 19.1133C111.824 19.3941 111.463 19.6374 111.082 19.8059C110.151 20.2177 109.163 20.2739 108.175 20.1428C106.16 19.8995 104.336 17.8591 104.963 15.3694C105.305 14.0403 107.833 12.2807 108.555 11.9624C109.296 11.6255 109.942 11.2885 110.512 10.8954C111.082 10.521 111.558 10.0905 111.938 9.62248C112.318 9.1545 112.603 8.63035 112.793 8.03133C112.983 7.4323 113.078 6.7584 113.078 5.9909C113.078 5.2234 112.945 4.53078 112.698 3.85688C112.451 3.20169 112.071 2.62139 111.558 2.11596C111.044 1.61054 110.398 1.23615 109.619 0.936634C108.84 0.655841 107.928 0.506085 106.882 0.506085C106.217 0.506085 105.552 0.599683 104.906 0.786878C104.374 0.936634 103.348 1.12383 102.834 1.2923L102.911 0.487366H102.568V2.19084H102.739C102.949 2.02237 103.12 1.87261 103.291 1.70413C103.614 1.42334 103.975 1.17999 104.355 1.01151C105.286 0.599683 106.274 0.543524 107.263 0.674561C109.277 0.917914 111.063 2.95834 110.474 5.44803C110.284 6.27169 109.847 6.96431 109.277 7.58206C109.239 7.63822 108.897 7.86285 108.783 7.93773C108.289 8.1998 107.643 8.51803 106.882 8.85498C106.141 9.17322 105.495 9.52889 104.925 9.922C104.355 10.2964 103.88 10.7269 103.5 11.1949C103.12 11.6629 102.834 12.2058 102.644 12.7861C102.454 13.3851 102.359 14.059 102.359 14.8265C102.359 15.0699 102.378 15.3132 102.397 15.5566C102.397 15.5566 102.606 16.6985 102.72 16.9605C102.968 17.6157 103.348 18.196 103.861 18.7014C104.374 19.1882 105.02 19.5813 105.799 19.8621C106.578 20.1428 107.491 20.2926 108.536 20.2926C109.201 20.2926 109.866 20.199 110.512 20.0118C111.044 19.8621 112.09 19.4689 112.584 19.2817V19.263L112.489 20.2926H112.831V18.6453" fill="white"/>
<path d="M155.211 1.79774C155.211 1.6667 155.173 1.55438 155.097 1.46079C155.021 1.36719 154.907 1.32975 154.774 1.32975C154.812 1.32975 154.736 1.32975 154.546 1.34847V2.26572C154.603 2.28444 154.698 2.28444 154.812 2.28444C155.078 2.30316 155.211 2.13469 155.211 1.79774ZM155.762 3.16426C155.61 3.16426 155.477 3.12682 155.363 3.03322C155.268 2.95835 155.192 2.86475 155.097 2.71499C155.021 2.60268 154.964 2.49036 154.888 2.35932C154.85 2.35932 154.793 2.37804 154.755 2.37804C154.698 2.37804 154.603 2.35932 154.508 2.3406V2.88347C154.508 2.95835 154.546 3.03322 154.603 3.07066C154.66 3.1081 154.736 3.12682 154.812 3.12682L154.831 3.16426V3.18298H154.014V3.12682H154.033C154.128 3.12682 154.185 3.1081 154.223 3.07066C154.261 3.03322 154.28 2.97706 154.28 2.88347V1.51694C154.28 1.40463 154.185 1.34847 154.014 1.34847V1.29231C154.147 1.27359 154.318 1.27359 154.565 1.27359C154.831 1.27359 155.04 1.29231 155.154 1.34847C155.363 1.42335 155.458 1.5731 155.458 1.79774C155.458 2.02237 155.344 2.19085 155.097 2.30316L155.515 2.92091C155.591 3.03322 155.667 3.08938 155.743 3.08938L155.762 3.16426ZM156.199 2.247C156.199 1.87261 156.066 1.5731 155.8 1.31103C155.534 1.04896 155.211 0.91792 154.831 0.91792C154.451 0.91792 154.147 1.04896 153.881 1.31103C153.615 1.5731 153.482 1.89133 153.482 2.247C153.482 2.62139 153.615 2.92091 153.881 3.18298C154.147 3.44505 154.47 3.57609 154.831 3.57609C155.211 3.57609 155.534 3.44505 155.8 3.18298C156.066 2.93963 156.199 2.62139 156.199 2.247ZM156.294 2.247C156.294 2.64011 156.142 2.97706 155.857 3.25786C155.572 3.53865 155.23 3.68841 154.812 3.68841C154.413 3.68841 154.071 3.53865 153.786 3.25786C153.501 2.97706 153.349 2.64011 153.349 2.247C153.349 1.8539 153.501 1.51694 153.786 1.23615C154.071 0.955359 154.413 0.805603 154.812 0.805603C155.211 0.805603 155.553 0.955359 155.857 1.23615C156.161 1.51694 156.294 1.8539 156.294 2.247Z" fill="white"/>
<path d="M20.5923 31.2861C20.5454 32.0038 20.3521 32.5312 20.0122 32.8681C19.6724 33.2021 19.2021 33.3691 18.6016 33.3691C17.9834 33.3691 17.4956 33.1362 17.1382 32.6703C16.7808 32.2016 16.6006 31.5659 16.5977 30.7631V29.3745C16.5977 28.5688 16.7793 27.9374 17.1426 27.4804C17.5088 27.0234 18.0083 26.7949 18.6411 26.7949C19.2388 26.7949 19.7017 26.9662 20.0298 27.309C20.3579 27.6518 20.5454 28.1777 20.5923 28.8867H20.0825C20.0356 28.3066 19.8979 27.892 19.6694 27.643C19.4438 27.394 19.1011 27.2695 18.6411 27.2695C18.1577 27.2695 17.7812 27.4496 17.5117 27.81C17.2422 28.1703 17.1074 28.6933 17.1074 29.3788V30.7499C17.1074 31.4296 17.2378 31.9584 17.4985 32.3364C17.7593 32.7143 18.127 32.9033 18.6016 32.9033C19.0996 32.9033 19.46 32.7787 19.6826 32.5297C19.9053 32.2807 20.0386 31.8661 20.0825 31.2861H20.5923ZM26.5539 31.4926H24.1545L23.6096 33.2812H23.0866L25.1257 26.8828H25.5915L27.6306 33.2812H27.1076L26.5539 31.4926ZM24.2995 31.0224H26.4089L25.3542 27.5903L24.2995 31.0224ZM30.8896 32.8154H33.5263V33.2812H30.3842V26.8828H30.8896V32.8154ZM36.6051 32.8154H39.8966V33.2812H36.0206V32.8637L39.1847 27.353H36.1085V26.8828H39.7779V27.2827L36.6051 32.8154ZM45.8318 31.4926H43.4324L42.8875 33.2812H42.3646L44.4036 26.8828H44.8694L46.9085 33.2812H46.3855L45.8318 31.4926ZM43.5774 31.0224H45.6868L44.6321 27.5903L43.5774 31.0224ZM49.6621 33.2812V26.8828H51.1694C51.8638 26.8828 52.4131 27.1054 52.8174 27.5507C53.2217 27.9931 53.4297 28.6039 53.4414 29.3832V30.7236C53.4414 31.5263 53.2363 32.1533 52.8262 32.6044C52.4189 33.0556 51.8462 33.2812 51.1079 33.2812H49.6621ZM50.1631 27.3574V32.8154H51.1343C51.7056 32.8154 52.1479 32.6396 52.4614 32.288C52.7749 31.9335 52.936 31.4282 52.9448 30.7719V29.4316C52.9448 28.7753 52.791 28.2656 52.4834 27.9023C52.1787 27.539 51.7363 27.3574 51.1562 27.3574H50.1631ZM60.5632 30.7763C60.5632 31.6025 60.3815 32.2411 60.0183 32.6923C59.6579 33.1435 59.1511 33.3691 58.4978 33.3691C57.8503 33.3691 57.342 33.1435 56.9729 32.6923C56.6066 32.2411 56.4221 31.6069 56.4191 30.7895V29.3964C56.4191 28.5732 56.6022 27.9345 56.9685 27.4804C57.3347 27.0234 57.8415 26.7949 58.489 26.7949C59.1452 26.7949 59.655 27.0234 60.0183 27.4804C60.3815 27.9374 60.5632 28.5805 60.5632 29.4096V30.7763ZM60.0578 29.3876C60.0578 28.6874 59.923 28.1616 59.6535 27.81C59.384 27.4584 58.9958 27.2827 58.489 27.2827C57.9997 27.2827 57.6174 27.4555 57.342 27.8012C57.0666 28.144 56.926 28.6581 56.9201 29.3437V30.7763C56.9201 31.4794 57.0593 32.0082 57.3376 32.3627C57.6159 32.7143 58.0026 32.8901 58.4978 32.8901C59.0075 32.8901 59.3942 32.7143 59.6579 32.3627C59.9245 32.0112 60.0578 31.4824 60.0578 30.7763V29.3876ZM68.3468 29.8007C68.1124 29.4667 67.9498 29.1811 67.859 28.9438C67.7682 28.7065 67.7228 28.4765 67.7228 28.2538C67.7228 27.7997 67.837 27.4438 68.0655 27.186C68.294 26.9252 68.5987 26.7949 68.9796 26.7949C69.3224 26.7949 69.6036 26.9135 69.8233 27.1508C70.0431 27.3852 70.1529 27.6855 70.1529 28.0517C70.1529 28.4765 69.9596 28.8808 69.5729 29.2646L68.9532 29.8315L70.3946 31.8442C70.6026 31.4223 70.7066 30.9462 70.7066 30.416H71.1549C71.1549 31.1454 70.9981 31.7548 70.6847 32.2441L71.4273 33.2812H70.8385L70.3902 32.6572C70.1969 32.8798 69.9742 33.0541 69.7223 33.1801C69.4703 33.3061 69.2066 33.3691 68.9313 33.3691C68.4215 33.3691 68.0143 33.2123 67.7096 32.8989C67.4049 32.5854 67.2525 32.1679 67.2525 31.6464C67.2525 31.3388 67.3287 31.0473 67.4811 30.7719C67.6363 30.4936 67.9249 30.1699 68.3468 29.8007ZM68.9313 32.9164C69.3766 32.9164 69.7721 32.704 70.1178 32.2792L68.6368 30.205L68.5929 30.1523L68.4347 30.2973C67.9688 30.7543 67.7359 31.204 67.7359 31.6464C67.7359 32.0302 67.8443 32.3378 68.0611 32.5693C68.2779 32.8007 68.568 32.9164 68.9313 32.9164ZM68.2105 28.2363C68.2105 28.582 68.3746 28.9965 68.7027 29.4799L69.1642 29.058C69.3194 28.9233 69.4454 28.7768 69.5421 28.6186C69.6417 28.4575 69.6915 28.2685 69.6915 28.0517C69.6915 27.8232 69.6256 27.6328 69.4938 27.4804C69.3648 27.3281 69.192 27.2519 68.9752 27.2519C68.7467 27.2519 68.5621 27.3427 68.4215 27.5244C68.2809 27.7031 68.2105 27.9404 68.2105 28.2363ZM80.8896 31.4926H78.4902L77.9453 33.2812H77.4224L79.4614 26.8828H79.9272L81.9663 33.2812H81.4434L80.8896 31.4926ZM78.6353 31.0224H80.7446L79.6899 27.5903L78.6353 31.0224ZM88.5036 31.2861C88.4567 32.0038 88.2634 32.5312 87.9235 32.8681C87.5837 33.2021 87.1135 33.3691 86.5129 33.3691C85.8947 33.3691 85.4069 33.1362 85.0495 32.6703C84.6921 32.2016 84.5119 31.5659 84.509 30.7631V29.3745C84.509 28.5688 84.6906 27.9374 85.0539 27.4804C85.4201 27.0234 85.9196 26.7949 86.5524 26.7949C87.1501 26.7949 87.613 26.9662 87.9411 27.309C88.2692 27.6518 88.4567 28.1777 88.5036 28.8867H87.9939C87.947 28.3066 87.8093 27.892 87.5808 27.643C87.3552 27.394 87.0124 27.2695 86.5524 27.2695C86.069 27.2695 85.6926 27.4496 85.423 27.81C85.1535 28.1703 85.0188 28.6933 85.0188 29.3788V30.7499C85.0188 31.4296 85.1491 31.9584 85.4099 32.3364C85.6706 32.7143 86.0383 32.9033 86.5129 32.9033C87.0109 32.9033 87.3713 32.7787 87.5939 32.5297C87.8166 32.2807 87.9499 31.8661 87.9939 31.2861H88.5036ZM95.3925 31.2861C95.3456 32.0038 95.1522 32.5312 94.8124 32.8681C94.4726 33.2021 94.0023 33.3691 93.4018 33.3691C92.7836 33.3691 92.2958 33.1362 91.9384 32.6703C91.581 32.2016 91.4008 31.5659 91.3979 30.7631V29.3745C91.3979 28.5688 91.5795 27.9374 91.9428 27.4804C92.309 27.0234 92.8085 26.7949 93.4413 26.7949C94.039 26.7949 94.5019 26.9662 94.83 27.309C95.1581 27.6518 95.3456 28.1777 95.3925 28.8867H94.8827C94.8358 28.3066 94.6981 27.892 94.4696 27.643C94.244 27.394 93.9013 27.2695 93.4413 27.2695C92.9579 27.2695 92.5814 27.4496 92.3119 27.81C92.0424 28.1703 91.9076 28.6933 91.9076 29.3788V30.7499C91.9076 31.4296 92.038 31.9584 92.2987 32.3364C92.5595 32.7143 92.9271 32.9033 93.4018 32.9033C93.8998 32.9033 94.2602 32.7787 94.4828 32.5297C94.7055 32.2807 94.8388 31.8661 94.8827 31.2861H95.3925ZM101.429 30.2182H98.9459V32.8154H101.802V33.2812H98.4449V26.8828H101.78V27.3574H98.9459V29.7524H101.429V30.2182ZM107.724 31.7079C107.724 31.3505 107.622 31.0693 107.417 30.8642C107.215 30.6591 106.835 30.4628 106.279 30.2753C105.722 30.0878 105.313 29.8784 105.053 29.6469C104.71 29.3452 104.538 28.9467 104.538 28.4516C104.538 27.9623 104.707 27.5639 105.044 27.2563C105.381 26.9487 105.816 26.7949 106.349 26.7949C106.894 26.7949 107.339 26.9736 107.685 27.331C108.031 27.6884 108.203 28.1484 108.203 28.7109H107.698C107.698 28.2802 107.576 27.933 107.333 27.6694C107.093 27.4028 106.765 27.2695 106.349 27.2695C105.945 27.2695 105.625 27.3793 105.391 27.5991C105.159 27.8159 105.044 28.0971 105.044 28.4428C105.044 28.7651 105.154 29.0287 105.373 29.2338C105.593 29.4389 105.943 29.622 106.424 29.7831C106.904 29.9413 107.267 30.1069 107.513 30.2797C107.76 30.4496 107.941 30.6503 108.058 30.8818C108.176 31.1132 108.234 31.3857 108.234 31.6992C108.234 32.2001 108.064 32.6044 107.724 32.912C107.387 33.2167 106.941 33.3691 106.384 33.3691C106.009 33.3691 105.666 33.2929 105.356 33.1406C105.048 32.9853 104.806 32.7641 104.631 32.477C104.458 32.187 104.371 31.8456 104.371 31.4531H104.872C104.872 31.9042 105.009 32.2587 105.281 32.5165C105.554 32.7744 105.921 32.9033 106.384 32.9033C106.788 32.9033 107.112 32.7949 107.355 32.5781C107.601 32.3613 107.724 32.0712 107.724 31.7079ZM115.145 30.7763C115.145 31.6025 114.963 32.2411 114.6 32.6923C114.24 33.1435 113.733 33.3691 113.08 33.3691C112.432 33.3691 111.924 33.1435 111.555 32.6923C111.188 32.2411 111.004 31.6069 111.001 30.7895V29.3964C111.001 28.5732 111.184 27.9345 111.55 27.4804C111.917 27.0234 112.423 26.7949 113.071 26.7949C113.727 26.7949 114.237 27.0234 114.6 27.4804C114.963 27.9374 115.145 28.5805 115.145 29.4096V30.7763ZM114.64 29.3876C114.64 28.6874 114.505 28.1616 114.235 27.81C113.966 27.4584 113.578 27.2827 113.071 27.2827C112.582 27.2827 112.199 27.4555 111.924 27.8012C111.648 28.144 111.508 28.6581 111.502 29.3437V30.7763C111.502 31.4794 111.641 32.0082 111.919 32.3627C112.198 32.7143 112.584 32.8901 113.08 32.8901C113.589 32.8901 113.976 32.7143 114.24 32.3627C114.506 32.0112 114.64 31.4824 114.64 30.7763V29.3876ZM120.276 30.6181H118.782V33.2812H118.277V26.8828H120.03C120.613 26.8828 121.064 27.0497 121.383 27.3837C121.706 27.7148 121.867 28.1762 121.867 28.768C121.867 29.1811 121.767 29.5444 121.568 29.8578C121.369 30.1684 121.101 30.3837 120.764 30.5038L122.095 33.2241V33.2812H121.559L120.276 30.6181ZM118.782 30.1523H120.118C120.496 30.1523 120.798 30.0234 121.023 29.7656C121.249 29.5048 121.362 29.1723 121.362 28.768C121.362 28.3198 121.244 27.9726 121.01 27.7265C120.776 27.4804 120.447 27.3574 120.026 27.3574H118.782V30.1523ZM125.627 33.2812H125.126V26.8828H125.627V33.2812ZM132.999 30.7763C132.999 31.6025 132.817 32.2411 132.454 32.6923C132.094 33.1435 131.587 33.3691 130.934 33.3691C130.286 33.3691 129.778 33.1435 129.409 32.6923C129.043 32.2411 128.858 31.6069 128.855 30.7895V29.3964C128.855 28.5732 129.038 27.9345 129.404 27.4804C129.771 27.0234 130.277 26.7949 130.925 26.7949C131.581 26.7949 132.091 27.0234 132.454 27.4804C132.817 27.9374 132.999 28.5805 132.999 29.4096V30.7763ZM132.494 29.3876C132.494 28.6874 132.359 28.1616 132.089 27.81C131.82 27.4584 131.432 27.2827 130.925 27.2827C130.436 27.2827 130.053 27.4555 129.778 27.8012C129.503 28.144 129.362 28.6581 129.356 29.3437V30.7763C129.356 31.4794 129.495 32.0082 129.774 32.3627C130.052 32.7143 130.439 32.8901 130.934 32.8901C131.443 32.8901 131.83 32.7143 132.094 32.3627C132.36 32.0112 132.494 31.4824 132.494 30.7763V29.3876ZM139.145 31.7079C139.145 31.3505 139.043 31.0693 138.838 30.8642C138.636 30.6591 138.256 30.4628 137.7 30.2753C137.143 30.0878 136.734 29.8784 136.473 29.6469C136.131 29.3452 135.959 28.9467 135.959 28.4516C135.959 27.9623 136.128 27.5639 136.465 27.2563C136.802 26.9487 137.237 26.7949 137.77 26.7949C138.315 26.7949 138.76 26.9736 139.106 27.331C139.451 27.6884 139.624 28.1484 139.624 28.7109H139.119C139.119 28.2802 138.997 27.933 138.754 27.6694C138.514 27.4028 138.186 27.2695 137.77 27.2695C137.366 27.2695 137.046 27.3793 136.812 27.5991C136.58 27.8159 136.465 28.0971 136.465 28.4428C136.465 28.7651 136.575 29.0287 136.794 29.2338C137.014 29.4389 137.364 29.622 137.845 29.7831C138.325 29.9413 138.688 30.1069 138.934 30.2797C139.18 30.4496 139.362 30.6503 139.479 30.8818C139.596 31.1132 139.655 31.3857 139.655 31.6992C139.655 32.2001 139.485 32.6044 139.145 32.912C138.808 33.2167 138.362 33.3691 137.805 33.3691C137.43 33.3691 137.087 33.2929 136.777 33.1406C136.469 32.9853 136.227 32.7641 136.052 32.477C135.879 32.187 135.792 31.8456 135.792 31.4531H136.293C136.293 31.9042 136.429 32.2587 136.702 32.5165C136.974 32.7744 137.342 32.9033 137.805 32.9033C138.209 32.9033 138.533 32.7949 138.776 32.5781C139.022 32.3613 139.145 32.0712 139.145 31.7079Z" fill="white"/>
</svg>
