<svg width="18" height="18" viewBox="0 0 18 18" fill="none" xmlns="http://www.w3.org/2000/svg">
<g clip-path="url(#clip0)">
<path d="M0 5.81108H3.98296V1.82812H0V5.81108ZM1.05482 2.88295H2.92827V4.75639H1.05482V2.88295Z" fill="#313131" fill-opacity="0.3"/>
<path d="M5.24902 1.82812V5.81108H18.0003V1.82812H5.24902ZM16.9455 4.75639H6.30385V2.88295H16.9455V4.75639Z" fill="#313131" fill-opacity="0.3"/>
<path d="M0 10.9793H3.98296V6.99637H0V10.9793ZM1.05482 8.05106H2.92827V9.9245H1.05482V8.05106Z" fill="#313131" fill-opacity="0.3"/>
<path d="M5.24902 10.9793H18.0003V6.99637H5.24902V10.9793ZM6.30385 8.05106H16.9455V9.9245H6.30385V8.05106Z" fill="#313131" fill-opacity="0.3"/>
<path d="M0 16.1476H3.98296V12.1645H0V16.1476ZM1.05482 13.2193H2.92827V15.0928H1.05482V13.2193Z" fill="#313131" fill-opacity="0.3"/>
<path d="M5.24902 16.1476H18.0003V12.1645H5.24902V16.1476ZM6.30385 13.2193H16.9455V15.0928H6.30385V13.2193Z" fill="#313131" fill-opacity="0.3"/>
</g>
<defs>
<clipPath id="clip0">
<rect width="18" height="18" fill="white"/>
</clipPath>
</defs>
</svg>
