<svg width="18" height="18" viewBox="0 0 18 18" fill="none" xmlns="http://www.w3.org/2000/svg">
<circle cx="9" cy="9" r="8.5" stroke="#313131" stroke-opacity="0.2"/>
<path d="M18 9C18 7.8181 17.7672 6.64778 17.3149 5.55585C16.8626 4.46392 16.1997 3.47177 15.364 2.63604C14.5282 1.80031 13.5361 1.13738 12.4442 0.685084C11.3522 0.232792 10.1819 -5.16623e-08 9 0C7.8181 5.16624e-08 6.64778 0.232792 5.55585 0.685084C4.46392 1.13738 3.47177 1.80031 2.63604 2.63604C1.80031 3.47177 1.13738 4.46392 0.685084 5.55585C0.232792 6.64778 -1.03325e-07 7.8181 0 9L1.05212 9C1.05212 7.95627 1.2577 6.92276 1.65712 5.95848C2.05654 4.9942 2.64197 4.11803 3.38 3.38C4.11803 2.64197 4.9942 2.05654 5.95848 1.65712C6.92276 1.2577 7.95627 1.05212 9 1.05212C10.0437 1.05212 11.0772 1.2577 12.0415 1.65712C13.0058 2.05654 13.882 2.64197 14.62 3.38C15.358 4.11803 15.9435 4.9942 16.3429 5.95848C16.7423 6.92276 16.9479 7.95627 16.9479 9H18Z" fill="#313131"/>
</svg>
