<svg width="18" height="18" viewBox="0 0 18 18" fill="none" xmlns="http://www.w3.org/2000/svg">
<g clip-path="url(#clip0)">
<path d="M17.9883 17.5343L17.5383 15.7343C17.3248 14.861 16.6775 14.1588 15.8246 13.875L12.5246 12.7755C11.7198 12.4402 11.3516 11.1443 11.2721 10.6522C11.8852 10.1423 12.2798 9.41685 12.3746 8.62499C12.361 8.48974 12.3929 8.35383 12.4653 8.23873C12.5822 8.20944 12.678 8.1257 12.7225 8.01373C12.9385 7.49088 13.074 6.93837 13.1245 6.37499C13.1246 6.34437 13.1209 6.31389 13.1133 6.28425C13.0596 6.06533 12.9309 5.87215 12.7495 5.73824V3.74998C12.7495 2.54173 12.3805 2.04599 11.992 1.75873C11.9178 1.17675 11.2946 0 8.99959 0C6.96344 0.0819844 5.33156 1.71387 5.24958 3.75001V5.73827C5.06824 5.87218 4.93953 6.06537 4.88581 6.28429C4.87822 6.31392 4.87446 6.34444 4.87456 6.37502C4.92505 6.93868 5.06058 7.49145 5.27658 8.01453C5.30906 8.12053 5.39424 8.20206 5.50158 8.2298C5.54359 8.25078 5.62234 8.35956 5.62234 8.62506C5.71765 9.41917 6.11449 10.1463 6.73085 10.6561C6.6521 11.1473 6.28609 12.4426 5.50386 12.7696L2.1746 13.875C1.32231 14.1588 0.675431 14.8603 0.461611 15.7328L0.011611 17.5328C-0.0393304 17.7336 0.0820993 17.9376 0.282841 17.9885C0.31283 17.9962 0.343662 18 0.374599 18.0001H17.6246C17.8317 18 17.9996 17.8321 17.9995 17.625C17.9995 17.5943 17.9957 17.5639 17.9883 17.5343Z" fill="#313131" fill-opacity="0.3"/>
</g>
<defs>
<clipPath id="clip0">
<rect width="18" height="18" fill="white"/>
</clipPath>
</defs>
</svg>
