<svg width="20" height="25" viewBox="0 0 20 25" fill="none" xmlns="http://www.w3.org/2000/svg">
<g clip-path="url(#clip0)">
<path d="M19.7709 11.8087C19.7706 11.8084 19.7704 11.8081 19.7702 11.8078L15.688 6.72968C15.3821 6.34926 14.8875 6.35068 14.5831 6.733C14.2787 7.11528 14.2799 7.73359 14.5857 8.11406L17.3265 11.5234H0.78125C0.349766 11.5234 0 11.9606 0 12.5C0 13.0393 0.349766 13.4765 0.78125 13.4765H17.3264L14.5857 16.8859C14.2799 17.2664 14.2788 17.8847 14.5831 18.267C14.8875 18.6493 15.3822 18.6507 15.688 18.2703L19.7702 13.1922C19.7704 13.1919 19.7706 13.1915 19.7709 13.1912C20.0769 12.8095 20.0759 12.1892 19.7709 11.8087Z" fill="white" fill-opacity="0.5"/>
</g>
<defs>
<clipPath id="clip0">
<rect width="20" height="25" fill="white"/>
</clipPath>
</defs>
</svg>
