<svg width="18" height="18" viewBox="0 0 18 18" fill="none" xmlns="http://www.w3.org/2000/svg">
<g clip-path="url(#clip0)">
<path d="M16.8951 6.11872L16.7685 5.86521C16.6944 5.71705 16.5142 5.65701 16.366 5.73115C16.344 5.74218 16.3234 5.75587 16.3047 5.77192C15.2166 6.69955 13.6103 6.6802 12.5448 5.72661L11.6007 4.87671C11.5009 4.7875 11.354 4.77524 11.2407 4.84671L10.2387 5.47941L9.89822 4.93941L9.39002 5.25981L9.73082 5.79981L9.22352 6.11992L8.88302 5.57991L8.37572 5.90062L8.71622 6.44062L8.20922 6.76102L7.86872 6.22102L7.36112 6.54142L7.70162 7.08142L7.19402 7.40092L6.85351 6.86092L6.34652 7.18312L6.67861 7.70872L6.36422 7.91212C6.33122 7.93342 6.30422 7.96012 6.27212 7.98382L5.58392 8.41852L1.17391 9.39832C0.48624 9.54825 -0.00309774 10.1585 1.47636e-05 10.8624V12.8997C1.47636e-05 13.0653 0.13434 13.1997 0.300015 13.1997H8.10002C8.12015 13.1997 8.14025 13.1977 8.16002 13.1937L12.3 12.3653V12.8996C12.3 13.0653 12.4343 13.1996 12.6 13.1996H17.7C17.8657 13.1996 18 13.0653 18 12.8996V10.7996C17.9981 9.17497 17.6199 7.57278 16.8951 6.11872ZM16.9476 7.85426C17.2157 8.71147 17.3663 9.60108 17.3952 10.4988H13.0944C13.5042 9.83066 14.5872 8.50972 16.9476 7.85426ZM0.600015 10.8624C0.598027 10.4398 0.89184 10.0735 1.30471 9.98366L5.69282 9.00866C5.66488 9.25222 5.69743 9.4989 5.78762 9.72686L6.02131 10.311C6.07494 10.4472 6.21969 10.5243 6.36272 10.4928L8.44742 10.0461C9.38923 9.84322 10.3699 10.1274 11.0574 10.8024L8.07002 11.3997H0.600015V10.8624ZM12.3 11.7536L8.07002 12.5996H0.600015V11.9996H8.10002C8.12015 11.9997 8.14025 11.9976 8.16002 11.9936L12.3 11.1653V11.7536ZM12.39 10.5359L11.7501 10.6637C10.9273 9.64661 9.6011 9.18063 8.32292 9.45952L6.48452 9.85316L6.34472 9.50396C6.20289 9.14595 6.30455 8.73734 6.59762 8.48756L7.00742 8.22866L7.30742 8.70416L7.81501 8.38316L7.51501 7.90766L8.02202 7.58816L8.32202 8.06366L8.82932 7.74296L8.52932 7.26746L9.03662 6.94705L9.33662 7.42256L9.84362 7.10185L9.54362 6.62695L10.05 6.30652L10.35 6.78172L10.86 6.46132L10.56 5.98582L11.37 5.47581L12.1452 6.17362C13.3285 7.23314 15.0811 7.35101 16.3956 6.45952C16.5279 6.72952 16.6452 7.00762 16.7523 7.28932C13.7481 8.13356 12.6537 9.98182 12.39 10.5359ZM17.4 12.5997H12.9V11.0997H17.4V12.5997Z" fill="#313131" fill-opacity="0.3"/>
</g>
<defs>
<clipPath id="clip0">
<rect width="18" height="18" fill="white"/>
</clipPath>
</defs>
</svg>
