<svg width="140" height="140" viewBox="0 0 140 140" fill="none" xmlns="http://www.w3.org/2000/svg">
<path d="M107.932 0.0273438C90.4356 0.0273438 75.8643 14.5987 75.8643 32.0953C75.8643 49.5919 90.4356 64.1906 107.932 64.1906C125.429 64.1906 140 49.6192 140 32.1226C140 14.6261 125.429 0.0273438 107.932 0.0273438ZM107.932 58.3402C93.3608 58.3402 81.6873 46.6667 81.6873 32.0953C81.6873 17.5239 93.3335 5.85042 107.932 5.85042C122.504 5.85042 134.177 17.5239 134.177 32.0953C134.177 46.6667 122.504 58.3402 107.932 58.3402Z" fill="#313131" fill-opacity="0.1"/>
<path d="M49.5919 110.83C41.4177 110.83 35.0205 117.254 35.0205 125.401C35.0205 133.575 41.445 139.973 49.5919 139.973C57.7387 139.973 64.1633 133.548 64.1633 125.401C64.1906 117.254 57.7661 110.83 49.5919 110.83ZM49.5919 134.177C44.917 134.177 40.8436 130.103 40.8436 125.429C40.8436 120.754 44.917 116.68 49.5919 116.68C54.2667 116.68 58.3402 120.754 58.3402 125.429C58.3402 130.103 54.2667 134.177 49.5919 134.177Z" fill="#313131" fill-opacity="0.1"/>
<path d="M128.928 64.1906C127.178 63.6165 126.003 64.7647 125.429 66.5144L123.105 76.4382L37.9457 87.5103L27.4478 35.0205H67.1158C68.8655 35.0205 70.041 33.8449 70.041 32.0953C70.041 30.3456 68.8655 29.1701 67.1158 29.1701H26.2722L23.347 13.9973C23.347 12.8217 21.5973 11.6735 20.4218 11.6735H2.92521C1.17555 11.6735 0 12.849 0 14.5987C0 16.3484 1.17555 17.5239 2.92521 17.5239H18.098L32.0953 88.6858C33.845 98.0082 42.5932 105.007 51.9156 105.007H118.977C120.726 105.007 121.902 103.831 121.902 102.082C121.902 100.332 120.726 99.1564 118.977 99.1564H52.5171C47.8422 99.1564 43.1947 96.8327 40.8436 92.7319L126.003 81.0584C127.178 81.0584 128.327 79.8828 128.327 78.7346L131.252 67.0611C131.826 66.5144 130.678 64.7647 128.928 64.1906Z" fill="#313131" fill-opacity="0.1"/>
<path d="M107.932 110.83C99.7575 110.83 93.3604 117.254 93.3604 125.401C93.3604 133.575 99.7849 139.973 107.932 139.973C116.106 139.973 122.503 133.548 122.503 125.401C122.503 117.254 116.079 110.83 107.932 110.83ZM107.932 134.177C103.257 134.177 99.1834 130.103 99.1834 125.429C99.1834 120.754 103.257 116.68 107.932 116.68C112.607 116.68 116.68 120.754 116.68 125.429C116.68 130.103 112.579 134.177 107.932 134.177Z" fill="#313131" fill-opacity="0.1"/>
<path d="M112.361 31.9313L120.398 23.8938L121.71 22.5815C122.886 21.406 122.886 19.6563 121.71 18.5081C120.535 17.3325 118.785 17.3325 117.637 18.5081L112.251 23.8938L108.315 27.8305L104.378 23.8938L98.9923 18.5081C97.8167 17.3325 96.0671 17.3325 94.9189 18.5081C93.7433 19.6837 93.7433 21.4333 94.9189 22.5815L96.2311 23.8938L104.269 31.9313L94.9462 41.2537L94.5908 41.6091C93.4152 42.7846 92.8685 44.5343 94.044 45.6825C95.2196 46.858 96.9692 46.858 98.1174 45.6825L103.503 40.2968H103.366L107.686 35.9774L117.008 45.2998C117.036 45.3271 117.063 45.3544 117.09 45.3818L117.391 45.6825C118.567 46.858 120.316 46.858 121.464 45.6825C121.71 45.4364 121.902 45.1631 122.039 44.8897C122.831 43.7688 122.695 42.2925 121.683 41.2537L112.361 31.9313Z" fill="#313131" fill-opacity="0.1"/>
</svg>
