<svg width="20" height="20" viewBox="0 0 20 20" fill="none" xmlns="http://www.w3.org/2000/svg">
<g clip-path="url(#clip0)">
<path d="M8.12509 15.6252C7.09129 15.6252 6.25 16.4665 6.25 17.5003C6.25 18.5341 7.09129 19.3754 8.12509 19.3754C9.15889 19.3754 10.0002 18.5341 10.0002 17.5003C10.0002 16.4665 9.15889 15.6252 8.12509 15.6252ZM8.12509 18.1254C7.78007 18.1254 7.50006 17.8453 7.50006 17.5003C7.50006 17.1553 7.78007 16.8753 8.12509 16.8753C8.4701 16.8753 8.75012 17.1553 8.75012 17.5003C8.75012 17.8453 8.4701 18.1254 8.12509 18.1254Z" fill="white"/>
<path d="M15.6261 15.6252C14.5923 15.6252 13.751 16.4665 13.751 17.5003C13.751 18.5341 14.5923 19.3754 15.6261 19.3754C16.6599 19.3754 17.5012 18.5341 17.5012 17.5003C17.5012 16.4665 16.6599 15.6252 15.6261 15.6252ZM15.6261 18.1254C15.281 18.1254 15.001 17.8453 15.001 17.5003C15.001 17.1553 15.281 16.8753 15.6261 16.8753C15.9711 16.8753 16.2511 17.1553 16.2511 17.5003C16.2511 17.8453 15.9711 18.1254 15.6261 18.1254Z" fill="white"/>
<path d="M19.8547 3.34967C19.7372 3.20716 19.5609 3.12466 19.3759 3.12466H4.68522L4.14144 1.08831C4.06894 0.814551 3.82143 0.624542 3.53767 0.624542H0.625029C0.280013 0.624542 0 0.904555 0 1.24957C0 1.59459 0.280013 1.8746 0.625029 1.8746H3.05764L6.27154 13.9114C6.34405 14.1852 6.59156 14.3752 6.87532 14.3752H16.8758C17.2208 14.3752 17.5008 14.0952 17.5008 13.7502C17.5008 13.4051 17.2208 13.1251 16.8758 13.1251H7.35534L6.98908 11.7526L18.1534 11.25C18.4446 11.2363 18.6884 11.0238 18.7396 10.7375L19.9897 3.86219C20.0234 3.67969 19.9734 3.49218 19.8547 3.34967ZM17.6008 10.0237L6.65781 10.5163L5.01899 4.37472H18.6271L17.6008 10.0237Z" fill="white"/>
<path d="M13.1251 6.87484H12.5001V6.24982C12.5001 5.9048 12.2201 5.62479 11.8751 5.62479C11.5301 5.62479 11.2501 5.9048 11.2501 6.24982V6.87484H10.625C10.28 6.87484 10 7.15486 10 7.49987C10 7.84489 10.28 8.1249 10.625 8.1249H11.2501V8.74993C11.2501 9.09495 11.5301 9.37496 11.8751 9.37496C12.2201 9.37496 12.5001 9.09495 12.5001 8.74993V8.1249H13.1251C13.4702 8.1249 13.7502 7.84489 13.7502 7.49987C13.7502 7.15486 13.4702 6.87484 13.1251 6.87484Z" fill="white"/>
</g>
<defs>
<clipPath id="clip0">
<rect width="20" height="20" fill="white"/>
</clipPath>
</defs>
</svg>
