<svg width="44" height="44" viewBox="0 0 44 44" fill="none" xmlns="http://www.w3.org/2000/svg">
<path d="M43.7533 15.3427L35.5461 3.60172C35.29 3.2355 34.8718 3.01761 34.425 3.01761H10.0311C9.59654 3.01761 9.18808 3.22364 8.93045 3.57349L0.267155 15.3145C0.0938458 15.5498 0 15.8342 0 16.1265C0 18.8344 1.97526 21.0851 4.55907 21.527V36.7268C4.55907 39.0731 6.46817 40.9822 8.81449 40.9822H35.5264C37.8727 40.9822 39.7814 39.0731 39.7814 36.7268V21.4353C41.971 20.8735 43.6385 18.9955 43.876 16.6952C44.0769 16.256 44.0318 15.7413 43.7533 15.3427ZM32.3736 38.2468H26.6741V26.5628H32.3736V38.2468ZM37.0455 36.7271C37.0461 37.5653 36.364 38.2468 35.5269 38.2468H35.1093V25.1951C35.1093 24.4396 34.4969 23.8271 33.7413 23.8271H25.3062C24.5507 23.8271 23.9382 24.4394 23.9382 25.1951V38.2468H8.81449C7.97635 38.2468 7.2948 37.5651 7.2948 36.7271V21.3015C8.19263 20.9864 8.98546 20.4467 9.60193 19.7468C10.6078 20.8895 12.0809 21.6111 13.7187 21.6111C15.3565 21.6111 16.8297 20.8893 17.8355 19.7468C18.8414 20.8895 20.3146 21.6111 21.9524 21.6111C23.5907 21.6111 25.0638 20.8893 26.0697 19.7468C27.0756 20.8895 28.5487 21.6111 30.1865 21.6111C31.8243 21.6111 33.2974 20.8893 34.3033 19.7468C35.0169 20.5574 35.969 21.1502 37.0455 21.4297V36.7271V36.7271ZM38.4209 18.8756C36.9053 18.8756 35.6718 17.6423 35.6718 16.1265C35.6718 15.3711 35.0595 14.7586 34.3039 14.7586C33.5484 14.7586 32.9359 15.3709 32.9359 16.1265C32.9359 17.6426 31.7026 18.8756 30.1869 18.8756C28.6711 18.8756 27.4378 17.6423 27.4378 16.1265C27.4378 15.3711 26.8255 14.7586 26.0699 14.7586C25.3144 14.7586 24.7019 15.3709 24.7019 16.1265C24.7019 17.6426 23.4686 18.8756 21.9525 18.8756C20.4364 18.8756 19.2035 17.6423 19.2035 16.1265C19.2035 15.3711 18.5912 14.7586 17.8355 14.7586C17.0799 14.7586 16.4676 15.3709 16.4676 16.1265C16.4676 17.6426 15.2343 18.8756 13.7186 18.8756C12.2028 18.8756 10.9695 17.6423 10.9695 16.1265C10.9695 15.3711 10.3572 14.7586 9.60157 14.7586C8.84595 14.7586 8.23362 15.3709 8.23362 16.1265C8.23362 17.6426 7.00032 18.8756 5.48458 18.8756C4.10764 18.8756 2.96405 17.8584 2.76575 16.5355L10.7212 5.75352H33.7126L41.1566 16.4025C41.0174 17.7895 39.8435 18.8756 38.4209 18.8756Z" fill="#313131" fill-opacity="0.7"/>
<path d="M20.1588 23.8273H10.8289C10.0735 23.8273 9.46094 24.4396 9.46094 25.1952V33.7449C9.46094 34.5003 10.0733 35.1129 10.8289 35.1129H20.1586C20.9141 35.1129 21.5266 34.5005 21.5266 33.7449V25.1952C21.5266 24.4396 20.9143 23.8273 20.1588 23.8273ZM18.7909 32.3769H12.1968V26.563H18.7909V32.3769Z" fill="#313131" fill-opacity="0.7"/>
</svg>
