<svg width="36" height="38" viewBox="0 0 36 38" fill="none" xmlns="http://www.w3.org/2000/svg">
<path d="M18.0616 0C12.5134 0 8 4.62627 8 10.3132C8 16.0001 12.5134 20.6264 18.0616 20.6264C23.6098 20.6264 28.1233 16.0001 28.1233 10.3132C28.1233 4.62627 23.6098 0 18.0616 0ZM18.0616 17.5931C14.1455 17.5931 10.9593 14.3273 10.9593 10.3132C10.9593 6.29911 14.1455 3.03328 18.0616 3.03328C21.9778 3.03328 25.164 6.29911 25.164 10.3132C25.164 14.3273 21.9778 17.5931 18.0616 17.5931Z" fill="#313131" fill-opacity="0.7"/>
<path d="M17.8916 20.6263C7.85887 20.6263 0 27.9765 0 37.36H3.35466C3.35466 29.5493 9.60444 23.6596 17.8916 23.6596C26.1788 23.6596 32.4285 29.5498 32.4285 37.36H35.7832C35.7832 27.9766 27.9243 20.6263 17.8916 20.6263Z" fill="#313131" fill-opacity="0.7"/>
</svg>
