<svg width="18" height="18" viewBox="0 0 18 18" fill="none" xmlns="http://www.w3.org/2000/svg">
<g clip-path="url(#clip0)">
<path d="M14.8027 13.5375L11.9318 12.8196L11.7662 12.1564C12.8276 12.0125 13.857 11.6902 14.8109 11.2032C14.9172 11.1394 14.9851 11.0272 14.9923 10.9034C14.9998 10.7796 14.9464 10.6598 14.8491 10.5827C14.8356 10.5737 13.4965 9.46764 13.4965 5.63533C13.4965 2.40327 12.7404 0.764387 11.2484 0.764387H11.0236C10.5059 0.208152 9.75535 -0.0698418 9.00026 0.0150247C7.5922 0.0150247 4.50402 1.4306 4.50402 5.63533C4.50402 9.46764 3.16488 10.5737 3.15515 10.5812C2.98946 10.7051 2.95559 10.9399 3.07952 11.1057C3.10861 11.1446 3.145 11.1774 3.18662 11.2024C4.13972 11.694 5.17048 12.0175 6.23356 12.1586L6.06794 12.8203L3.1979 13.5382C1.32135 14.0052 0.00504186 15.6916 0.00781688 17.6253C0.00781688 17.8323 0.175583 18 0.382515 18H17.6181C17.8251 18 17.9928 17.8323 17.9928 17.6253C17.9959 15.6913 16.6795 14.0044 14.8027 13.5375Z" fill="#313131" fill-opacity="0.3"/>
</g>
<defs>
<clipPath id="clip0">
<rect width="18" height="18" fill="white"/>
</clipPath>
</defs>
</svg>
